<?xml version="1.0" encoding="UTF-8"?>
<svg version="1.1" xmlns="http://www.w3.org/2000/svg" width="714" height="728">
<path d="M0 0 C14.30472534 12.08263208 23.75320415 28.35516616 25.6875 47.125 C26.8230177 66.28935137 22.77440627 83.85087706 10.6875 99.125 C10.04167969 99.95902344 9.39585937 100.79304688 8.73046875 101.65234375 C-2.26518088 114.89200351 -18.21001768 122.51403725 -34.98266602 125.3984375 C-36.06596726 125.59601654 -37.14926851 125.79359558 -38.26539707 125.99716187 C-41.51841159 126.58520323 -44.77343607 127.15872885 -48.03008509 127.72612 C-50.47609088 128.15358951 -52.9212086 128.5858861 -55.36619186 129.01916504 C-68.93239558 131.42248866 -82.50556558 133.78505917 -96.08013225 136.14061737 C-102.03612925 137.17474257 -107.99162096 138.21176956 -113.94715881 139.24853516 C-126.49124905 141.43183391 -139.0358182 143.6123704 -151.58050537 145.79223633 C-170.44752475 149.07072755 -189.31419665 152.35121518 -208.18035513 155.63465691 C-215.22170645 156.86001468 -222.26332473 158.08382318 -229.30514842 159.30646324 C-262.34035335 165.04076687 -262.34035335 165.04076687 -295.3125 171.125 C-293.81719002 171.68471497 -293.81719002 171.68471497 -292.29167175 172.2557373 C-270.22514308 180.51639632 -248.17115514 188.8101307 -226.125 197.125 C-225.4808527 197.36794296 -224.8367054 197.61088593 -224.17303848 197.8611908 C-217.53013208 200.3666318 -210.88734255 202.87238257 -204.24462223 205.37831688 C-191.55980016 210.16359859 -178.87426725 214.94699462 -166.18862534 219.73010254 C-164.30735531 220.43943982 -162.42609191 221.14879466 -160.54483032 221.8581543 C-142.15694042 228.79157105 -123.76798683 235.72216174 -105.3783741 242.65100765 C-100.29106938 244.56782669 -95.20386307 246.48490675 -90.11669922 248.40209961 C-87.23145095 249.48943553 -84.34619614 250.5767541 -81.4609375 251.6640625 C-80.39331995 252.06639823 -80.39331995 252.06639823 -79.30413437 252.47686195 C-71.47841633 255.42593508 -63.65231285 258.37397899 -55.82519531 261.31933594 C-55.13119346 261.58049037 -54.4371916 261.8416448 -53.72215939 262.11071301 C-52.33029562 262.6344695 -50.9384318 263.15822585 -49.54656792 263.68198204 C-36.23111898 268.69266538 -22.91923288 273.71264307 -9.61181641 278.74462891 C-5.69096967 280.22709583 -1.76898587 281.70644341 2.15478516 283.18115234 C5.92476726 284.59825675 9.69149069 286.02358839 13.45489502 287.45806885 C15.26620752 288.14617068 17.08100023 288.82509127 18.89599609 289.50341797 C30.21607582 293.84605725 39.0384453 299.64665033 47.6875 308.125 C48.38875 308.79015625 49.09 309.4553125 49.8125 310.140625 C63.26838305 323.91188031 67.19358376 341.7132954 67.03515625 360.33984375 C66.56723206 380.06654253 58.73710041 395.57494093 44.6875 409.125 C43.73810547 410.12080078 43.73810547 410.12080078 42.76953125 411.13671875 C30.59201719 423.09917737 13.47210888 427.29555782 -3 427.625 C-4.43279297 427.67140625 -4.43279297 427.67140625 -5.89453125 427.71875 C-21.04858792 427.71875 -35.6120112 421.08248244 -49.5625 415.75 C-51.26839559 415.10353173 -52.97454183 414.45772458 -54.6809082 413.8125 C-58.46823544 412.37954373 -62.25426908 410.94323349 -66.03955078 409.50488281 C-72.80196862 406.93701874 -79.57055251 404.38561746 -86.33984375 401.8359375 C-88.19870448 401.13573317 -90.0575652 400.43552884 -91.9164257 399.73532391 C-93.18079108 399.25906011 -94.44516108 398.7828086 -95.7095356 398.3065691 C-102.9257627 395.58831833 -110.14062214 392.86644354 -117.35546875 390.14453125 C-120.03173291 389.13491414 -122.70800431 388.12531624 -125.38427734 387.11572266 C-126.04443911 386.86668214 -126.70460087 386.61764162 -127.38476753 386.36105442 C-138.73483104 382.07941669 -150.08561506 377.79968941 -161.43637466 373.51989746 C-163.31764469 372.81056018 -165.19890809 372.10120534 -167.08016968 371.3918457 C-187.65649026 363.63324988 -208.23425956 355.87850212 -228.8125 348.125 C-258.14879659 337.07162357 -287.48310632 326.0129863 -316.81640625 314.95166016 C-324.38795867 312.09651481 -331.95959176 309.24158346 -339.53125 306.38671875 C-340.16107788 306.14924423 -340.79090576 305.91176971 -341.43981934 305.667099 C-345.89737708 303.98639277 -350.35493812 302.30569526 -354.8125 300.625 C-359.90625231 298.7044332 -365.00000286 296.78386175 -370.09375 294.86328125 C-370.72373901 294.62574631 -371.35372803 294.38821136 -372.00280762 294.14347839 C-380.183491 291.05897666 -388.36411357 287.97431373 -396.54467773 284.88949585 C-402.80059894 282.53044539 -409.05653937 280.17144592 -415.3125 277.8125 C-416.24582153 277.46057083 -416.24582153 277.46057083 -417.19799805 277.10153198 C-434.02918315 270.75501293 -450.86100094 264.41017495 -467.6938324 258.06802368 C-469.14932273 257.51963356 -470.60481284 256.97124286 -472.06030273 256.42285156 C-472.78263061 256.15069761 -473.50495848 255.87854366 -474.24917507 255.59814262 C-479.32914249 253.68408039 -484.40887582 251.76939778 -489.48852539 249.85449219 C-492.36863287 248.76882853 -495.24876184 247.68322192 -498.12890625 246.59765625 C-498.83955797 246.32979687 -499.55020969 246.06193748 -500.28239632 245.78596115 C-509.5943377 242.27637754 -518.90856033 238.77292804 -528.22506714 235.27548218 C-533.08597994 233.45063021 -537.94610664 231.62368882 -542.80604362 229.79623985 C-546.04761728 228.57750623 -549.28960108 227.35989364 -552.53271484 226.14526367 C-564.62837228 221.61321783 -576.70341023 217.0414946 -588.67578125 212.19140625 C-589.57123154 211.83155136 -590.46668182 211.47169647 -591.38926697 211.10093689 C-597.6785538 208.52265436 -603.12735326 205.57080124 -608.3125 201.125 C-609.13363281 200.48433594 -609.95476563 199.84367188 -610.80078125 199.18359375 C-623.35695929 188.8376079 -631.75125434 173.14257607 -634.3125 157.125 C-636.10800955 135.75903026 -632.44272243 117.60891797 -619.0625 100.375 C-601.09483497 79.52887261 -577.59925514 75.67413596 -551.91674805 71.26318359 C-549.7932528 70.89393561 -547.66984879 70.52416259 -545.54652786 70.1539135 C-539.77119986 69.14836607 -533.99463365 68.15010418 -528.21782756 67.15308857 C-522.01828504 66.08174728 -515.81995033 65.00346097 -509.62147522 63.92596436 C-498.97115347 62.07551336 -488.32012779 60.22917552 -477.6685791 58.38580322 C-461.62294022 55.60886682 -445.57859935 52.82448267 -429.53454378 50.03841493 C-423.17318984 48.9337848 -416.81179964 47.82936346 -410.45040894 46.72494507 C-409.74875966 46.60312705 -409.04711038 46.48130904 -408.32419901 46.35579957 C-397.62697646 44.49861097 -386.92953252 42.64270137 -376.23196411 40.7875061 C-340.54884386 34.59908603 -304.86836068 28.39576533 -269.19140625 22.171875 C-268.08393091 21.97868384 -266.97645557 21.78549268 -265.83542037 21.58644724 C-252.95747173 19.3399552 -240.07964835 17.09274576 -227.2018984 14.84511507 C-217.32383019 13.12104191 -207.4457042 11.39730015 -197.56752622 9.67385602 C-194.73823493 9.18017739 -191.90896994 8.68634824 -189.07970905 8.19249535 C-180.07188216 6.62040922 -171.06357549 5.05117079 -162.05415344 3.48825073 C-158.60701702 2.88990892 -155.15993518 2.29125362 -151.71289062 1.69238281 C-150.87050634 1.54607272 -150.02812205 1.39976264 -149.16021097 1.24901891 C-137.88912473 -0.7101744 -126.62614476 -2.71071585 -115.36858749 -4.74617577 C-109.32082512 -5.83937162 -103.27077821 -6.91966615 -97.2201426 -7.9968344 C-93.1866965 -8.7158792 -89.15480687 -9.4418583 -85.12599945 -10.18648911 C-54.70595418 -15.80292311 -26.27613804 -20.10765441 0 0 Z " fill="#000000" transform="translate(647.3125,14.875)"/>
<path d="M0 0 C0.99708984 -0.01417969 1.99417969 -0.02835937 3.02148438 -0.04296875 C14.19222563 0.03028201 24.28068335 3.2413658 34.62109375 7.234375 C36.10894127 7.79915054 36.10894127 7.79915054 37.62684631 8.37533569 C40.89944112 9.61907786 44.16838523 10.8721426 47.4375 12.125 C49.78877714 13.02011842 52.14034683 13.91446872 54.4921875 14.80810547 C58.19778154 16.2165088 61.90321943 17.62530603 65.60739136 19.03744507 C77.97316933 23.75155489 90.35593405 28.42026434 102.74075317 33.08410645 C106.54228206 34.51575255 110.34334067 35.94864427 114.14428711 37.38183594 C114.78277619 37.62258347 115.42126528 37.86333099 116.07910252 38.1113739 C117.37814378 38.60118996 118.67718457 39.09100727 119.9762249 39.58082581 C138.94366227 46.73238122 157.91300843 53.87887346 176.88208008 61.02609253 C197.2556199 68.70250933 217.62838518 76.38097605 238 84.0625 C238.62339264 84.2975613 239.24678528 84.5326226 239.8890686 84.77480698 C250.50260332 88.77683574 261.11604987 92.77909828 271.72949219 96.78137207 C280.48629348 100.08350661 289.24312391 103.38556384 298 106.6875 C298.62274811 106.9223196 299.24549622 107.15713921 299.88711548 107.39907455 C321.09025753 115.39410982 342.29485072 123.38529017 363.5 131.375 C387.83102971 140.54248402 412.16126343 149.71207395 436.48950195 158.88696289 C438.97867621 159.82568936 441.46785264 160.76441007 443.95703125 161.703125 C445.80075066 162.39842567 445.80075066 162.39842567 447.68171692 163.10777283 C454.08608321 165.52276356 460.49075674 167.93693515 466.89599609 170.34960938 C467.88327698 170.72149148 467.88327698 170.72149148 468.89050293 171.10088634 C471.55366259 172.10400207 474.21683189 173.10709216 476.88004303 174.11007118 C484.03889268 176.80616173 491.19708785 179.50395723 498.35302734 182.20776367 C500.84081528 183.14763703 503.32861116 184.08748933 505.81640625 185.02734375 C507.02149841 185.4826799 508.22659058 185.93801605 509.46820068 186.40715027 C516.21089191 188.95251076 522.95940067 191.4813101 529.71559143 193.99061584 C533.62334817 195.4434316 537.5276201 196.90545471 541.43130493 198.36917114 C543.19114504 199.02629748 544.95262253 199.67905981 546.71591187 200.32687378 C566.83379062 207.72045128 583.89530813 218.63229256 594.25 238.125 C601.70563559 254.25850652 604.6644923 274.19048721 599.15625 291.53125 C594.18724353 303.75231996 588.52574619 313.187947 579 322.375 C578.05060547 323.37080078 578.05060547 323.37080078 577.08203125 324.38671875 C573.08069363 328.31739258 568.49119996 330.96952048 563.5625 333.5625 C562.97315674 333.88379883 562.38381348 334.20509766 561.77661133 334.53613281 C557.11461924 336.85603316 552.2837987 338.13735602 547.23014832 339.30566406 C546.48149008 339.47983321 545.73283184 339.65400236 544.961487 339.83344936 C537.16504739 341.61479062 529.31885024 343.02651355 521.4387207 344.37890625 C519.84473493 344.65640519 518.25082763 344.93435514 516.656991 345.21270943 C512.32684219 345.96766186 507.99564096 346.71640852 503.66423178 347.46409082 C498.96833672 348.2758929 494.27349176 349.09372647 489.57852173 349.91085815 C481.43650599 351.32715134 473.29388693 352.73992947 465.15084839 354.15032959 C452.14920053 356.40235528 439.14883908 358.66175202 426.14868164 360.92236328 C421.66991171 361.70110962 417.19113509 362.47981748 412.71235657 363.2585144 C411.59269829 363.45318869 410.47304002 363.64786297 409.3194527 363.84843647 C401.26361286 365.24901611 393.2076063 366.64863423 385.15153503 368.04788208 C341.677065 375.59936169 298.20920962 383.18849955 254.74319553 390.78848267 C240.5022091 393.27833225 226.2605241 395.76415318 212.01844752 398.24775887 C202.50821781 399.90636149 192.9981976 401.56616423 183.48828125 403.2265625 C182.46860787 403.40458342 181.44893449 403.58260433 180.39836192 403.76601982 C155.58861416 408.09808397 130.78562676 412.46433741 105.99865061 416.92495835 C101.08379722 417.80938148 96.16841135 418.69078157 91.25260925 419.56991577 C90.58820271 419.68876928 89.92379616 419.80762278 89.23925608 419.93007791 C86.00366435 420.50886805 82.76803814 421.0874646 79.53237057 421.66583061 C73.59458579 422.72870913 67.65847146 423.79948155 61.72579956 424.89056396 C-4.68105677 437.10041049 -4.68105677 437.10041049 -31.90234375 418.37890625 C-47.16136679 406.71527714 -55.82385994 390.67822027 -59.6875 372.0625 C-61.5221924 350.41312963 -56.52188514 332.07044067 -43.234375 314.89453125 C-32.94255716 303.28924715 -19.75278778 295.4663612 -4.58081055 292.34751892 C-3.80307879 292.18148727 -3.02534704 292.01545563 -2.22404766 291.84439272 C6.03987661 290.10617341 14.34743775 288.62705992 22.66796875 287.18969727 C24.35355268 286.89529062 26.03907213 286.60051454 27.72453308 286.30540466 C32.2627771 285.51184392 36.80188894 284.7233562 41.34117889 283.93580365 C46.19039456 283.0935095 51.03875061 282.24629447 55.88720703 281.39964294 C65.12998551 279.78637284 74.37348076 278.17725002 83.61725998 276.56972498 C94.85348831 274.61553793 106.0888771 272.65654295 117.32421875 270.69726562 C121.34667541 269.99585558 125.3691373 269.29447555 129.39160156 268.59310913 C130.38295923 268.42024867 131.3743169 268.24738822 132.39571571 268.06928957 C139.35321223 266.85620315 146.31085783 265.64397411 153.26855469 264.43203735 C189.51894235 258.11705606 225.76109761 251.75553011 262 245.375 C258.822683 244.09909614 255.64467709 242.82491674 252.46655273 241.55102539 C251.57519371 241.19306129 250.68383469 240.8350972 249.76546478 240.46628571 C242.89226013 237.71272835 235.98417776 235.08263788 229.03179932 232.53482056 C225.30862408 231.16919473 221.58993347 229.79144224 217.87109375 228.4140625 C217.03602295 228.10481339 216.20095215 227.79556427 215.34057617 227.47694397 C203.72951157 223.17034259 192.14578635 218.79080284 180.55964279 214.41771317 C178.61418276 213.68341713 176.66868414 212.94922341 174.72317505 212.21505737 C169.34236102 210.18449711 163.96160052 208.15379513 158.58097839 206.12272644 C144.34080498 200.74756968 130.09733493 195.38117028 115.85369873 190.01519775 C108.60025604 187.28260286 101.3470019 184.54950752 94.09375 181.81640625 C93.38015697 181.54751839 92.66656395 181.27863052 91.93134689 181.00159454 C82.17434345 177.32505152 72.41748986 173.64811111 62.66090584 169.97045517 C60.66583935 169.21845825 58.67074303 168.46654051 56.67564392 167.71463013 C50.2666889 165.29905498 43.85838953 162.88176372 37.45141602 160.4609375 C26.93383348 156.48816318 16.41500538 152.52023093 5.87216187 148.61488342 C1.69512681 147.0670267 -2.47907438 145.51161158 -6.65307617 143.95559692 C-8.55391311 143.24960197 -10.45620337 142.54750439 -12.36010742 141.849823 C-27.15305495 136.42854774 -39.64342335 130.67383134 -51 119.375 C-51.69867188 118.71113281 -52.39734375 118.04726563 -53.1171875 117.36328125 C-66.51796553 103.67571614 -70.52075644 85.84498218 -70.42016602 67.30517578 C-70.21868637 59.04386657 -69.1983697 52.06631762 -66 44.375 C-65.525625 43.2096875 -65.05125 42.044375 -64.5625 40.84375 C-60.45862035 31.76786231 -55.05587121 25.27613719 -48 18.375 C-47.36578125 17.70855469 -46.7315625 17.04210937 -46.078125 16.35546875 C-33.76369183 4.28623447 -16.62838736 0.18306482 0 0 Z " fill="#000000" transform="translate(70,296.625)"/>
</svg>
