<svg width="16" height="16" viewBox="0 0 16 16" fill="none" xmlns="http://www.w3.org/2000/svg">
<path d="M13.9 9.3L12 0.8C11.9 0.3 11.5 0 11 0H7V2H10.2L10.9 5H4C3.4 5 3 5.4 3 6V8.1C1.3 8.5 0 10.1 0 12C0 14.2 1.8 16 4 16C6.2 16 8 14.2 8 12C8 10.1 6.7 8.6 5 8.1V7H11.3L11.8 9.1C10.2 9.4 9 10.8 9 12.5C9 14.4 10.6 16 12.5 16C14.4 16 16 14.4 16 12.5C16 11.1 15.1 9.8 13.9 9.3ZM6 12C6 13.1 5.1 14 4 14C2.9 14 2 13.1 2 12C2 10.9 2.9 10 4 10C5.1 10 6 10.9 6 12ZM12.5 14C11.7 14 11 13.3 11 12.5C11 11.7 11.7 11 12.5 11C13.3 11 14 11.7 14 12.5C14 13.3 13.3 14 12.5 14Z" fill="white"/>
<path d="M5 2H1V4H5V2Z" fill="white"/>
</svg>
