<svg width="16" height="17" viewBox="0 0 16 17" fill="none" xmlns="http://www.w3.org/2000/svg">
<g clip-path="url(#clip0_545_4577)">
<path d="M8 0.5C4.1 0.5 1 3.6 1 7.5C1 9.4 1.7 11.2 3.1 12.5C3.2 12.6 7.2 16.2 7.3 16.3C7.7 16.6 8.3 16.6 8.6 16.3C8.7 16.2 12.8 12.6 12.8 12.5C14.2 11.2 14.9 9.4 14.9 7.5C15 3.6 11.9 0.5 8 0.5ZM8 9.5C6.9 9.5 6 8.6 6 7.5C6 6.4 6.9 5.5 8 5.5C9.1 5.5 10 6.4 10 7.5C10 8.6 9.1 9.5 8 9.5Z" fill="#24242D"/>
</g>
<defs>
<clipPath id="clip0_545_4577">
<rect width="16" height="16" fill="white" transform="translate(0 0.5)"/>
</clipPath>
</defs>
</svg>
