<svg width="12" height="12" viewBox="0 0 12 12" fill="none" xmlns="http://www.w3.org/2000/svg">
<path d="M0.999985 12C1.08099 12 1.16199 11.99 1.24199 11.97L5.24199 10.97C5.41799 10.926 5.57899 10.835 5.70698 10.707L11.707 4.70701C12.098 4.31601 12.098 3.68401 11.707 3.29301L8.70698 0.293006C8.31598 -0.0979941 7.68399 -0.0979941 7.29299 0.293006L1.29299 6.29301C1.16499 6.42101 1.07399 6.58201 1.02999 6.75701L0.0299852 10.757C-0.0560148 11.098 0.0449852 11.458 0.292985 11.707C0.481985 11.897 0.737985 12 0.999985 12ZM2.90299 7.51101L7.99998 2.41401L9.58599 4.00001L4.48799 9.09701L2.37399 9.62501L2.90299 7.51101Z" fill="black"/>
</svg>