<svg width="13" height="8" viewBox="0 0 13 8" fill="none" xmlns="http://www.w3.org/2000/svg">
<path fill-rule="evenodd" clip-rule="evenodd" d="M7.2113 0.386931L7.29432 0.292914C7.46654 0.120707 7.69568 0.0172565 7.93875 0.00197256C8.18182 -0.0133114 8.42212 0.060621 8.61456 0.209899L8.70857 0.292914L11.7091 3.29346L11.7511 3.33746L11.8061 3.40548L11.8771 3.5155L11.9312 3.62952L11.9662 3.73454L11.9962 3.88256L12.0022 4.00058L11.9992 4.0756L11.9822 4.20162L11.9522 4.31264L11.9082 4.42366L11.8561 4.52168L11.7821 4.6257L11.7091 4.70771L8.70857 7.70825C8.52858 7.88763 8.28706 7.99178 8.03307 7.99953C7.77907 8.00729 7.53165 7.91808 7.34105 7.75001C7.15045 7.58195 7.03096 7.34764 7.00687 7.09467C6.98277 6.8417 7.05586 6.58904 7.2113 6.38801L7.29432 6.294L8.58655 5.00076H1.00018C0.734916 5.00076 0.480516 4.89539 0.292946 4.70782C0.105376 4.52025 0 4.26585 0 4.00058C0 3.73532 0.105376 3.48092 0.292946 3.29335C0.480516 3.10578 0.734916 3.0004 1.00018 3.0004H8.58655L7.29432 1.70717C7.12211 1.53495 7.01866 1.3058 7.00338 1.06273C6.98809 0.819664 7.06202 0.57937 7.2113 0.386931L7.29432 0.292914L7.2113 0.386931Z" fill="#7031F5"/>
</svg>
