<svg width="128" height="99" viewBox="0 0 128 99" fill="none" xmlns="http://www.w3.org/2000/svg">
<path fill-rule="evenodd" clip-rule="evenodd" d="M99.6977 89.8255C119.003 76.8986 132.564 49.4896 126.066 30.3421C119.568 11.2919 92.917 0.503193 64.7597 0.0172169C36.696 -0.46876 7.12567 9.34794 1.1928 27.6207C-4.83427 45.8933 12.8702 72.7193 34.2475 86.9098C55.5304 101.1 80.4865 102.752 99.6977 89.8255ZM87.5913 49.3736C93.2232 49.3736 95.9061 45.2221 95.9061 42.4182C95.9061 39.6143 93.2232 35.4628 87.5913 35.4628C81.9594 35.4628 79.2769 39.6143 79.2769 42.4182C79.2769 45.2221 81.9594 49.3736 87.5913 49.3736ZM88.5177 67.1924C102.247 66.7209 113.228 55.8093 113.228 42.4182C113.228 28.7271 101.75 17.6283 87.5913 17.6283C87.5437 17.6283 87.496 17.6284 87.4484 17.6287H45.3978C42.743 17.6287 40.5909 19.8484 40.5909 22.5867C40.5909 25.3249 42.743 27.5446 45.3978 27.5446H67.08L67.0716 27.555C69.5829 27.7241 71.5687 29.8744 71.5687 32.5022C71.5687 35.2404 69.4123 37.4602 66.7523 37.4602H62.4677L62.4672 37.4606H27.7726C25.1178 37.4606 22.9657 39.6804 22.9657 42.4186C22.9657 45.1568 25.1178 47.3766 27.7726 47.3766H66.8141C69.4458 47.4106 71.5687 49.6171 71.5687 52.3341C71.5687 54.9617 69.5829 57.1122 67.0716 57.2814L67.0805 57.2927H38.9887C36.3339 57.2927 34.1818 59.5122 34.1818 62.2506C34.1818 64.9885 36.3339 67.2086 38.9887 67.2086H88.1257C88.2576 67.2086 88.3884 67.2032 88.5177 67.1924ZM78.9634 74.1155C79.592 76.0408 78.2799 78.797 76.4113 80.0972C74.5516 81.3969 72.1366 81.2309 70.0765 79.8041C68.0074 78.3767 66.2943 75.6792 66.8774 73.8417C67.4516 72.0043 70.3136 71.0171 73.0295 71.0662C75.7549 71.1152 78.3343 72.1999 78.9634 74.1155ZM84.6225 74.1155C83.9934 76.0408 85.3061 78.797 87.1746 80.0972C89.0338 81.3969 91.4493 81.2309 93.5089 79.8041C95.578 78.3767 97.2916 75.6792 96.708 73.8417C96.1338 72.0043 93.2723 71.0171 90.5559 71.0662C87.831 71.1152 85.2511 72.1999 84.6225 74.1155Z" fill="#7031F5"/>
</svg>
