<svg xmlns="http://www.w3.org/2000/svg" viewBox="0 0 24 24" height="16" width="16"><g><circle cx="11" cy="18.86" r="1"></circle><circle cx="6.5" cy="15.36" r="1"></circle><circle cx="2.5" cy="16.86" r="1"></circle><path d="M20,16.36H16a.75.75,0,0,0,0,1.5h4a.75.75,0,0,1,0,1.5H15a.75.75,0,0,0,0,1.5h3.5a.75.75,0,0,1,0,1.5H10.85a4.67,4.67,0,0,1-4.18-2.59A.76.76,0,0,0,6,19.36H1a.75.75,0,0,0,0,1.5H5.56a6.14,6.14,0,0,0,5.29,3H18.5a2.25,2.25,0,0,0,2.25-2.25,2.23,2.23,0,0,0-.16-.83A2.25,2.25,0,0,0,20,16.36Z"></path><path d="M1,12.86H6a.75.75,0,0,0,.62-.34,6,6,0,0,1,2.67-2.2.75.75,0,0,0-.58-1.38,7.45,7.45,0,0,0-3.1,2.42H1a.75.75,0,0,0,0,1.5Z"></path><path d="M23.53,3.68a.75.75,0,0,0-1.06,0L20.81,5.35,19.5,3.71V1.64h.75a.75.75,0,0,0,0-1.5h-6.5a.75.75,0,0,0,0,1.5h.75V3.71L13.19,5.35,11.53,3.68a.75.75,0,1,0-1.06,1.06l2,2,0,0v6.44a1,1,0,0,0,1,1h7a1,1,0,0,0,1-1V6.77l0,0,2-2A.75.75,0,0,0,23.53,3.68Z"></path></g></svg>