<svg xmlns="http://www.w3.org/2000/svg" viewBox="0 0 24 24" height="16" width="16"><g><path d="M12.35,8.94C10.56,4.16,9,0,3.48,0a7.85,7.85,0,0,0-3,.6.5.5,0,0,0-.31.47V18.4a.5.5,0,0,0,.5.5H6.75a.5.5,0,0,0,.5-.5V16.52h.69a2.9,2.9,0,0,0,2.89-2.89V11.75h1a1.1,1.1,0,0,0,1-1.49C12.68,9.81,12.52,9.37,12.35,8.94Zm-10-1.66a1,1,0,1,1,1-1A1,1,0,0,1,2.32,7.28Zm2.5,3a1,1,0,1,1,1-1A1,1,0,0,1,4.82,10.28Zm0-6a1,1,0,1,1,1-1A1,1,0,0,1,4.82,4.28Zm2.5,3a1,1,0,1,1,1-1A1,1,0,0,1,7.32,7.28Z"></path><path d="M23.41,17.54a4.49,4.49,0,0,0-3.08.72,3.43,3.43,0,0,0-.88,1.07V16.7l.19,0A4.36,4.36,0,0,0,22.41,16a4.56,4.56,0,0,0,1.45-2.82.49.49,0,0,0-.45-.58,4.56,4.56,0,0,0-3.08.73,3.22,3.22,0,0,0-.88,1.07v-1a5.07,5.07,0,0,0,1-2.8,5.47,5.47,0,0,0-1.29-3.23.57.57,0,0,0-.88,0A5.47,5.47,0,0,0,17,10.57a5.14,5.14,0,0,0,1,2.81v1a3.34,3.34,0,0,0-.88-1.07A4.59,4.59,0,0,0,14,12.6a.51.51,0,0,0-.45.58A4.61,4.61,0,0,0,15,16a4.38,4.38,0,0,0,2.77.74l.2,0v2.63a3.57,3.57,0,0,0-.88-1.07A4.52,4.52,0,0,0,14,17.54a.49.49,0,0,0-.45.57A4.61,4.61,0,0,0,15,20.93a4.38,4.38,0,0,0,2.77.74,1.2,1.2,0,0,0,.2,0v1.59a.75.75,0,0,0,1.5,0V21.64l.19,0a4.36,4.36,0,0,0,2.77-.74,4.56,4.56,0,0,0,1.45-2.82A.48.48,0,0,0,23.41,17.54Z"></path></g></svg>