<svg xmlns="http://www.w3.org/2000/svg" viewBox="0 0 24 24" height="16" width="16"><g><path d="M12.26,14.47c-2,.12-3.85.82-4.78,2.64V13.85c3.64-.14,5.56-2.08,5.69-5.72.08-.2.06-.22.06-1.73a.75.75,0,1,0-1.49,0V7.49a5,5,0,0,0-4.26,2.6V8.87c1.83-2.11,1.88-4.18,0-6.36V.8A.75.75,0,1,0,6,.8C6,2.55,6,2.45,6,2.51c-1.83,2.1-1.9,4.18,0,6.36v1.18C5.32,8.78,4.09,7.77,1.75,7.49V6.4a.75.75,0,1,0-1.49,0c0,1.53,0,1.54,0,1.73C.45,11.86,2.45,13.7,6,13.85v3.22a5,5,0,0,0-4.23-2.55v-.8a.75.75,0,1,0-1.49,0c0,1.29,0,1.26.06,1.45.14,3.62,2,5.55,5.66,5.71V23.3a.75.75,0,0,0,1.5,0V20.88a10.83,10.83,0,0,0,1.3-.15C8.92,20.31,8.8,20.58,12.26,14.47Z"></path><path d="M22.24,23.65A1.86,1.86,0,0,0,23.5,21c0-.08-.18-.33-1.59-2.81L18.84,12.8a2.25,2.25,0,0,0-3.5-.53c-.33.32.05-.28-5,8.65a1.87,1.87,0,0,0,1.62,2.78C22.64,23.7,21.94,23.72,22.24,23.65Zm-6.4-3.09a1,1,0,1,1,1.05,1.05A1,1,0,0,1,15.84,20.56Zm.8-6.39A1.16,1.16,0,0,1,18,15.54l-.62,2.84a.52.52,0,0,1-1,0l-.62-2.84A1.14,1.14,0,0,1,16.64,14.17Z"></path></g></svg>