<svg xmlns="http://www.w3.org/2000/svg" viewBox="0 0 24 24" height="16" width="16"><g><path d="M19.33,4.52A1,1,0,1,0,18,6a9,9,0,1,1-6-2.28,1,1,0,0,0,0-2,11,11,0,1,0,7.33,2.79Z"></path><path d="M5.48,11a1,1,0,0,0-1.1.89,7,7,0,0,0,0,.79,7.66,7.66,0,1,0,14.21-4,1,1,0,0,0-1.38-.34,1,1,0,0,0-.33,1.38A5.66,5.66,0,1,1,6.37,12.13,1,1,0,0,0,5.48,11Z"></path><path d="M8.81,7.86a.93.93,0,0,0,.48-.12,5.58,5.58,0,0,1,2.17-.66A1,1,0,0,0,12.36,6a1,1,0,0,0-1.09-.9A7.68,7.68,0,0,0,8.33,6a1,1,0,0,0,.48,1.87Z"></path><path d="M10.6,11.76A3.9,3.9,0,0,0,8,8.91a1,1,0,1,0-.64,1.9c.81.26,1,.66,1.31,1.62a6.14,6.14,0,0,0,3.74,4.11,1,1,0,0,0,1.27-.4c1.47-2.45,1.68-5.34,1.87-7.88s.38-5,1.82-6.2A1,1,0,1,0,16.11.54C14,2.31,13.82,5.13,13.6,8.11a18.57,18.57,0,0,1-1.16,6.17A4,4,0,0,1,10.6,11.76Z"></path></g></svg>