<svg xmlns="http://www.w3.org/2000/svg" viewBox="0 0 24 24" height="16" width="16"><path d="M23,22.24l-2.49-1a5.22,5.22,0,0,0,.45-.88,17.85,17.85,0,0,0,1.76.33.75.75,0,0,0,.15-1.48l-1.62-.33c0-2.19-2.6-3.74-2.6-4.53a7.09,7.09,0,0,0-1.07-4c3.38-1.93,5.23-3.84,5.5-5.69a3.59,3.59,0,0,0-1.2-3.17A3.83,3.83,0,0,0,18.2.4C16,.86,13.57,3.09,12,6,10.43,3.09,8,.86,5.8.4A3.83,3.83,0,0,0,2.17,1.49,3.59,3.59,0,0,0,1,4.66c.27,1.85,2.12,3.76,5.5,5.69a7.09,7.09,0,0,0-1.07,4c0,.79-2.59,2.34-2.6,4.53l-1.62.33a.75.75,0,0,0,.15,1.48,17.05,17.05,0,0,0,1.76-.34,5,5,0,0,0,.45.89l-2.49,1a.75.75,0,0,0,.28,1.45c.2,0,0,0,3.22-1.23l0,0a4.56,4.56,0,0,0,2.85,1.12,6.43,6.43,0,0,0,4.45-2.14c-.33,0-.31-.09-1.93-1.71A.75.75,0,0,1,11,18.65l1,1,1-1A.75.75,0,0,1,14,19.71l-1.5,1.5a.73.73,0,0,1-.43.21,6.43,6.43,0,0,0,4.45,2.14,4.56,4.56,0,0,0,2.85-1.12l.05,0c3.18,1.27,3,1.23,3.22,1.23A.75.75,0,0,0,23,22.24ZM16.76,5.51a6.77,6.77,0,0,1,3.56-1.77,1.5,1.5,0,0,1,1.25.37c.07,2.1-3.69,4.36-5.53,5.35a.83.83,0,0,0-.23.19l-1.5-1.23A7.41,7.41,0,0,1,16.76,5.51ZM8.19,9.65A.83.83,0,0,0,8,9.46c-1.86-1-5.6-3.24-5.53-5.35a1.5,1.5,0,0,1,1.25-.37A6.77,6.77,0,0,1,7.24,5.51,7.41,7.41,0,0,1,9.69,8.42Zm1.42,5.93a1,1,0,1,1,1-1A1,1,0,0,1,9.61,15.58Zm3.78-1a1,1,0,1,1,1,1A1,1,0,0,1,13.39,14.58Z"></path></svg>