<svg xmlns="http://www.w3.org/2000/svg" viewBox="0 0 24 24" height="16" width="16"><g><path d="M12,.25A11.75,11.75,0,1,0,23.75,12,11.76,11.76,0,0,0,12,.25Zm0,2.33A9.42,9.42,0,1,1,2.58,12,9.44,9.44,0,0,1,12,2.58Z"></path><path d="M12,20.42A8.42,8.42,0,1,0,3.58,12,8.43,8.43,0,0,0,12,20.42Zm6.18-10.7a5.34,5.34,0,0,1-1.46,3.85A5.25,5.25,0,0,1,13.28,15a6.78,6.78,0,0,0,2-4.62A5.38,5.38,0,0,1,18.18,9.72Zm-9.41.67a6.79,6.79,0,0,0,2,4.63,5.29,5.29,0,0,1-3.44-1.45,5,5,0,0,1-1.4-3.91A5.65,5.65,0,0,1,8.77,10.39ZM12,17a.76.76,0,0,1-.75-.75V14.12a5.7,5.7,0,0,1-1.48-3.73,5.88,5.88,0,0,1,1.85-4.13.53.53,0,0,1,.76,0,5.88,5.88,0,0,1,1.85,4.13,5.7,5.7,0,0,1-1.48,3.73v2.17A.76.76,0,0,1,12,17Z"></path></g></svg>