<svg xmlns="http://www.w3.org/2000/svg" viewBox="0 0 24 24" height="16" width="16"><g><path d="M8.74,12.89l.41-.33L7.8,11.21a6.86,6.86,0,0,0-2.58,2.88,5.21,5.21,0,0,0,.35,4.25A7.8,7.8,0,0,1,8.74,12.89Z"></path><path d="M9.66,14.07C8.83,14.71,7.44,15.79,7,19c0,0,0,.07,0,.1,2.53.52,5-.19,6.32-2.41l-3.06-3.05Z"></path><path d="M20.49,20.33a11.91,11.91,0,1,0-.16.16A.81.81,0,0,0,20.49,20.33ZM19.38,5.4a9.89,9.89,0,0,1,.29,12.86L15.44,14l.33-.18c1.5-.78,2.82-1.63,3.22-3.39a7.85,7.85,0,0,0,.1-3.58A12.07,12.07,0,0,0,13.94,9a6.8,6.8,0,0,0-1.3,2.21L11.52,10.1a5.8,5.8,0,0,1,1-1.78A3.59,3.59,0,0,1,12.88,8,13.74,13.74,0,0,1,18.16,5.5c-1.5-1-4.93-.7-6.52.88-.16.16-.29.34-.43.51a8.2,8.2,0,0,0-1,1.89L5.74,4.33A9.89,9.89,0,0,1,19.38,5.4ZM2.1,12A9.86,9.86,0,0,1,4.33,5.74L18.26,19.67A9.91,9.91,0,0,1,2.1,12Z"></path></g></svg>