<svg xmlns="http://www.w3.org/2000/svg" viewBox="0 0 24 24" height="16" width="16"><g><path d="M23.54,21.17c-5-8.88-4.68-8.27-4.89-8.51a2.25,2.25,0,0,0-3.25-.16c-.35.33-.05-.11-5,8.67A1.88,1.88,0,0,0,12,24h9.92A1.88,1.88,0,0,0,23.54,21.17ZM17,21.86A1,1,0,1,1,18,20.81,1,1,0,0,1,17,21.86Zm1.13-6.08-.62,2.85a.52.52,0,0,1-1,0l-.62-2.85a1.16,1.16,0,1,1,2.26,0Z"></path><path d="M13.16,4.63A4.13,4.13,0,0,1,14.78,5c1.22-1.25,1-3,.38-4.66a.49.49,0,0,0-.4-.31c-.75-.1-.32,1-3.63,2.44A6,6,0,0,1,13.16,4.63Z"></path><path d="M2.67,4.63a5.83,5.83,0,0,1,2-2.15A7.55,7.55,0,0,1,1.45.23.5.5,0,0,0,.59.35C-.06,2-.23,3.75,1,5.05A4,4,0,0,1,2.67,4.63Z"></path><path d="M3.35,8.19A8.9,8.9,0,0,0,4,10.64a6.35,6.35,0,0,1,7.87-.16,8.83,8.83,0,0,0,.59-2.29,4.33,4.33,0,0,0,3.13,0A2.36,2.36,0,0,0,13,5.63a3.65,3.65,0,0,0-.49,0A4.8,4.8,0,0,0,7.91,2.59,4.8,4.8,0,0,0,3.3,5.66a3.58,3.58,0,0,0-.48,0A2.37,2.37,0,0,0,.22,8.22,4.23,4.23,0,0,0,3.35,8.19ZM9.71,6.71a.75.75,0,0,1,0,1.5.75.75,0,1,1,0-1.5Zm-2.84.75a.75.75,0,1,1-.75-.75A.75.75,0,0,1,6.87,7.46Z"></path><path d="M8,16.22c2.32,0,4.2-1.35,4.2-3s-1.88-3-4.2-3-4.2,1.34-4.2,3S5.71,16.22,8,16.22Zm-.6-2.63a.5.5,0,0,1-.5.5.51.51,0,0,1-.5-.5v-.68a.5.5,0,0,1,.5-.5.5.5,0,0,1,.5.5Zm2.13,0a.51.51,0,0,1-.5.5.5.5,0,0,1-.5-.5v-.68a.5.5,0,0,1,.5-.5.5.5,0,0,1,.5.5Z"></path></g></svg>