<svg xmlns="http://www.w3.org/2000/svg" viewBox="0 0 24 24" height="16" width="16"><g><path d="M18.16,10.41a5.07,5.07,0,0,0,1.63-2.2c.65-1.63,1.27-4,.59-5.68a14.29,14.29,0,0,1-2,4.21.52.52,0,0,1-.7.09.51.51,0,0,1-.09-.71,14.63,14.63,0,0,0,1.95-4.34.51.51,0,0,1,.15-.23C18-.07,13.38-.38,11,1.39c-.24.18-.45.39-.67.58-1.05.89-1.49,2.28-2.5,3.21C6,6.85,2.45,7.59,1,10.22a7.25,7.25,0,0,0-.64,5,1.47,1.47,0,0,0,.08.28,10.23,10.23,0,0,1,5.11-6l.25-.14a.49.49,0,1,1,.49.86L6,10.36a9.57,9.57,0,0,0-4.81,5.87.48.48,0,0,1-.17.23,2.34,2.34,0,0,0,.71.48c2.6,1.1,5.83,1.35,8.43-.8,1.33-1.11,1.72-2.53,3.22-3.46l.31-.55A3.77,3.77,0,0,1,18.16,10.41Zm-9.36,3A10.2,10.2,0,0,1,4.9,16a.5.5,0,0,1-.64-.3.51.51,0,0,1,.3-.64,9.25,9.25,0,0,0,3.55-2.37.5.5,0,1,1,.69.73Zm3-9.43A7,7,0,0,1,14.52,2.4a.5.5,0,0,1,.38.92,6,6,0,0,0-2.48,1.47.52.52,0,0,1-.71-.06A.51.51,0,0,1,11.77,4Zm.06,6.75a.5.5,0,1,1-.5-.86,5.07,5.07,0,0,1,1-.44,8.73,8.73,0,0,0,2-1,.5.5,0,0,1,.65.76,9.49,9.49,0,0,1-2.33,1.14A4.1,4.1,0,0,0,11.83,10.77Z"></path><path d="M23.58,21c-5-8.85-4.68-8.29-4.94-8.57a2.26,2.26,0,0,0-3.25,0c-.3.3.06-.27-5,8.62A1.88,1.88,0,0,0,12,23.81H22A1.88,1.88,0,0,0,23.58,21Zm-6.59.7A1.06,1.06,0,1,1,18,20.66,1,1,0,0,1,17,21.71Zm1.13-6.09-.62,2.85a.52.52,0,0,1-1,0l-.62-2.85a1.16,1.16,0,1,1,2.26,0Z"></path></g></svg>