<svg xmlns="http://www.w3.org/2000/svg" viewBox="0 0 24 24" height="16" width="16"><g><path d="M8.25,15.74a2.56,2.56,0,0,1-2.5-3.06A2.53,2.53,0,0,1,7.38,10.8L6,9.43a4.37,4.37,0,0,0-.93,6.84,4.43,4.43,0,0,0,3.18,1.34h5.94l-1.87-1.87Z"></path><path d="M6.75,12.87a1.54,1.54,0,0,0,1.5,1.85h3L8.23,11.65A1.6,1.6,0,0,0,6.75,12.87Z"></path><path d="M20.54,20.38a12,12,0,1,0-.16.16A.81.81,0,0,0,20.54,20.38ZM22,12a9.92,9.92,0,0,1-2.25,6.31l-1.86-1.86a5.75,5.75,0,0,0,2.28-5.29A5.84,5.84,0,0,0,15.31,6.1,5.75,5.75,0,0,0,9.76,8.35L5.69,4.28A10,10,0,0,1,22,12Zm-5.45,3.11-.74-.75a2.9,2.9,0,1,0-3.94-3.93l-.74-.74a3.92,3.92,0,1,1,5.42,5.42ZM13.42,12a1.19,1.19,0,1,1,.78.79ZM2,12A9.92,9.92,0,0,1,4.28,5.69l14,14A10,10,0,0,1,2,12Z"></path></g></svg>