<svg xmlns="http://www.w3.org/2000/svg" viewBox="0 0 24 24" height="16" width="16"><path d="M23.08.49a.5.5,0,0,0-.5-.46c-.3,0-7.51,0-10,3.08a6.87,6.87,0,0,0-1,8,20.45,20.45,0,0,1,4.7-6.4,1,1,0,0,1,1.41.09,1.08,1.08,0,0,1,.22.44,1,1,0,0,0-.55.24C13.26,9,11.09,14.85,10,18.81c-.13-.82-.29-1.72-.49-2.65C8.38,10.5,6.05,3.29,1.6,1.28a.51.51,0,0,0-.52.06.49.49,0,0,0-.18.48A70.81,70.81,0,0,0,9.17,22.88a1,1,0,0,0,.53.86.5.5,0,0,0,.42.23.4.4,0,0,0,.15,0,.38.38,0,0,0,.21-.13,1,1,0,0,0,.68-.79,38.19,38.19,0,0,1,3.11-10,5.23,5.23,0,0,0,1,.09c2.11,0,4.24-1.26,5.82-3.59C23.49,5.92,23.1.71,23.08.49Z"></path></svg>