<svg xmlns="http://www.w3.org/2000/svg" viewBox="0 0 24 24" height="16" width="16"><g><path d="M7.66,14.43a1,1,0,1,0,1,1A1,1,0,0,0,7.66,14.43Z"></path><path d="M11.78,17.93a1,1,0,1,0-1,1A1,1,0,0,0,11.78,17.93Z"></path><path d="M1.06,16.93a1,1,0,1,0,1-1A1,1,0,0,0,1.06,16.93Z"></path><path d="M.78,12.93h5a.76.76,0,0,0,.62-.33,5.89,5.89,0,0,1,1.92-1.83.75.75,0,0,0,.27-1,.76.76,0,0,0-1-.26,7.5,7.5,0,0,0-2.17,1.95H.78a.75.75,0,1,0,0,1.5Z"></path><path d="M23.09,8.23c-1.18-1.9-2.78-2.18-3.9-2.72a4.29,4.29,0,0,1-1.75-1.63c-1.15-1.75-2.16-2.82-4.22-3a6.75,6.75,0,0,0-4,.65,11.18,11.18,0,0,1,3.53.66.5.5,0,0,1-.19,1A11.49,11.49,0,0,0,8.64,2.5a.52.52,0,0,1-.25-.07c-.83,1.74-.07,5.2,1.72,6.63.19.15.39.27.58.4a7.91,7.91,0,0,0,2,.8c1.63.55,2.2,1.52,3.4,2.73a5.61,5.61,0,0,0,3.62,2,5.91,5.91,0,0,0,3.25-.68,8.3,8.3,0,0,1-5.56-2.7l-.17-.17a.5.5,0,0,1,.72-.7l.16.17a7.48,7.48,0,0,0,5.42,2.45.5.5,0,0,1,.25.09,2.14,2.14,0,0,0,.21-.86A7,7,0,0,0,23.09,8.23ZM12.6,7.87a.51.51,0,0,1-.7.12,5.5,5.5,0,0,1-1.83-1.8.5.5,0,1,1,.8-.59,4.53,4.53,0,0,0,1.61,1.57A.51.51,0,0,1,12.6,7.87Zm4.59-.76a.48.48,0,0,1-.7,0,4.39,4.39,0,0,1-.55-.68,6.69,6.69,0,0,0-1.11-1.31.5.5,0,0,1-.13-.7.51.51,0,0,1,.69-.13,7.56,7.56,0,0,1,1.38,1.58,3.09,3.09,0,0,0,.43.54A.49.49,0,0,1,17.19,7.11Zm5.35,4.23a.51.51,0,0,1-.7-.12A7.24,7.24,0,0,0,19.32,9a.5.5,0,0,1-.16-.69.51.51,0,0,1,.69-.16,8.29,8.29,0,0,1,2.81,2.48A.51.51,0,0,1,22.54,11.34Z"></path><path d="M14.37,16.18a.75.75,0,1,0,0,1.5h5a1.18,1.18,0,0,1,1.12.63.76.76,0,0,1-.66,1.12h-5a.75.75,0,0,0,0,1.5h3.5a.75.75,0,0,1,0,1.5H10.63a4.65,4.65,0,0,1-4.18-2.59.76.76,0,0,0-.67-.41h-5a.75.75,0,0,0,0,1.5H5.33a6.15,6.15,0,0,0,5.3,3h7.65a2.25,2.25,0,0,0,2.09-3.08,2.22,2.22,0,0,0,1.29-.94,2.49,2.49,0,0,0-2.34-3.73Z"></path></g></svg>