<svg xmlns="http://www.w3.org/2000/svg" viewBox="0 0 24 24" height="16" width="16"><g><path d="M23.85,6c0-2.9-2-5.26-4.42-5.26S15,3.11,15,6a5.15,5.15,0,0,0,3.4,5.11V22.75a1,1,0,0,0,2,0V11.13A5.14,5.14,0,0,0,23.85,6Z"></path><path d="M9.15,6.75V2.25a1,1,0,0,0-2,0v4.5A2.51,2.51,0,0,1,5.65,9V2.25a1,1,0,0,0-2,0V9a2.5,2.5,0,0,1-1.5-2.29V2.25a1,1,0,0,0-2,0v4.5a4.51,4.51,0,0,0,3.5,4.39V22.75a1,1,0,0,0,2,0V11.14A4.51,4.51,0,0,0,9.15,6.75Z"></path><path d="M16.32,14.82a5.08,5.08,0,0,0-3.05,1A3.79,3.79,0,0,0,13.83,14a4.72,4.72,0,0,0-1.47-3.05.57.57,0,0,0-.83,0A4.76,4.76,0,0,0,10.07,14a3.79,3.79,0,0,0,.56,1.86,5.1,5.1,0,0,0-3.05-1,.51.51,0,0,0-.53.52,4.91,4.91,0,0,0,1.18,3.21A4.58,4.58,0,0,0,11,19.69V22a1,1,0,0,0,2,0V19.69a4.58,4.58,0,0,0,2.72-1.14,4.84,4.84,0,0,0,1.17-3.21A.5.5,0,0,0,16.32,14.82Z"></path></g></svg>