<svg xmlns="http://www.w3.org/2000/svg" viewBox="0 0 24 24" height="16" width="16"><g><path d="M20.28,7a1,1,0,1,0-1.2-1.6L16.75,7.12,14.92,4.38A2,2,0,0,0,14.11.56H6.61a2,2,0,0,0-.82,3.82L4,7.09,1.7,5.37A1,1,0,1,0,.5,7L3,8.86H17.77Z"></path><path d="M9.18,20.41l4.62-8.15a3.84,3.84,0,0,1,1.4-1.4H3.11v11.2a2,2,0,0,0,2,2H9.39A3.37,3.37,0,0,1,9.18,20.41Z"></path><path d="M23.88,21.83c-.06-.5-.17-.58-1.38-2.72-3.8-6.7-3.56-6.4-4.05-6.78a2.26,2.26,0,0,0-2.87.09c-.41.36-.23.15-3.94,6.69-1.2,2.12-1.4,2.31-1.4,3a1.88,1.88,0,0,0,1.32,1.79c.38.12-.33.08,10.47.08A1.86,1.86,0,0,0,23.88,21.83Zm-6.81,0a1.05,1.05,0,1,1,1.05-1.05A1,1,0,0,1,17.07,21.84Zm1.13-6.08-.62,2.85a.52.52,0,0,1-1,0l-.62-2.85a1.16,1.16,0,1,1,2.26,0Z"></path></g></svg>