<svg xmlns="http://www.w3.org/2000/svg" viewBox="0 0 24 24" height="16" width="16"><g><path d="M9.57,16.5a3.64,3.64,0,0,0,4.83,1.31l-2.61-2.6a3.89,3.89,0,0,0-1,.07l.54-.54-1.06-1.06-.71.71a4.2,4.2,0,0,0,.12-1.29L7.12,10.53A3.62,3.62,0,0,0,8.5,15.45L6.35,17.6a.75.75,0,0,0,.53,1.28.71.71,0,0,0,.53-.22Z"></path><path d="M14.4,10.8a4.1,4.1,0,0,0,4-4,.45.45,0,0,0-.51-.51,4.1,4.1,0,0,0-4,4.05A.45.45,0,0,0,14.4,10.8Z"></path><path d="M20.49,20.33a11.91,11.91,0,1,0-.16.16A.61.61,0,0,0,20.49,20.33ZM21.9,12a9.84,9.84,0,0,1-2.23,6.26L15.61,14.2a4.56,4.56,0,0,0,3.09-1.41,4.44,4.44,0,0,0-3-1.49,4.05,4.05,0,0,0-2.21.8l-.91-.91C13.75,9.53,13.73,7.87,12,6A4.31,4.31,0,0,0,10.5,9.09L5.74,4.33A9.91,9.91,0,0,1,21.9,12ZM2.1,12A9.89,9.89,0,0,1,4.33,5.74L18.26,19.67A9.91,9.91,0,0,1,2.1,12Z"></path></g></svg>