<svg xmlns="http://www.w3.org/2000/svg" viewBox="0 0 24 24" height="16" width="16"><g><path d="M22.6,12.89a.51.51,0,0,1-.65.27.5.5,0,0,1-.27-.66,11,11,0,0,0,.58-3.59.52.52,0,0,1,.07-.25,6.39,6.39,0,0,0-5.76,1,4.48,4.48,0,0,0-1.07,1.23c-.6.88-.65,2-1.22,2.89-1,1.63-3.51,2.87-4.06,5.12a5.64,5.64,0,0,0,.53,3.88,8.08,8.08,0,0,1,2.63-5.41l.16-.16a.51.51,0,0,1,.71,0,.5.5,0,0,1,0,.71l-.16.16a7.23,7.23,0,0,0-2.38,5.27.43.43,0,0,1-.1.25,3.19,3.19,0,0,0,1.26.23,6.33,6.33,0,0,0,4.21-1.13c2.56-2,1.3-3.54,3.86-5.24a6.38,6.38,0,0,0,2.63-2.72,7.19,7.19,0,0,0-.31-5.3A10.85,10.85,0,0,1,22.6,12.89Zm-3.33-1.8a7.08,7.08,0,0,0-1.17,1c-.32.39-.37.75-.77.75a.5.5,0,0,1-.41-.79,5.42,5.42,0,0,1,1.75-1.79.5.5,0,1,1,.6.8ZM13.78,21.75a7.08,7.08,0,0,0,2.15-2.45.5.5,0,1,1,.84.53,7.82,7.82,0,0,1-2.41,2.74.5.5,0,0,1-.7-.12A.51.51,0,0,1,13.78,21.75ZM19,16.84c-.56.37-.55.56-.87.56a.5.5,0,0,1-.35-.86,4.36,4.36,0,0,1,.67-.54,6.73,6.73,0,0,0,1.27-1.07.5.5,0,1,1,.82.56A7.15,7.15,0,0,1,19,16.84Z"></path><path d="M10.78,13.74V11.85h1a1.1,1.1,0,0,0,1-1.49C10.7,4.88,9.41.13,3.44.13A7.86,7.86,0,0,0,.4.74a.49.49,0,0,0-.31.46V18.5a.5.5,0,0,0,.5.5H6.71a.5.5,0,0,0,.5-.5V16.62H7.9A2.88,2.88,0,0,0,10.78,13.74ZM1.28,6.38a1,1,0,1,1,1,1A1,1,0,0,1,1.28,6.38Zm4.5-3a1,1,0,1,1-1-1A1,1,0,0,1,5.78,3.38Zm-1,5a1,1,0,1,1-1,1A1,1,0,0,1,4.78,8.38Zm2.5-3a1,1,0,1,1-1,1A1,1,0,0,1,7.28,5.38Zm5.07,5.16Z"></path></g></svg>