<svg xmlns="http://www.w3.org/2000/svg" viewBox="0 0 24 24" height="16" width="16"><g><circle cx="10.75" cy="18.98" r="1"></circle><circle cx="6.25" cy="15.23" r="1"></circle><circle cx="2.25" cy="16.48" r="1"></circle><path d="M24,15.73a.75.75,0,0,0-1.5,0,.76.76,0,0,1-.75.75h-2a.75.75,0,0,0,0,1.5.75.75,0,0,1,0,1.5h-5a.75.75,0,0,0,0,1.5h3.5a.75.75,0,0,1,0,1.5H10.6a4.65,4.65,0,0,1-4.18-2.59.76.76,0,0,0-.67-.41h-5a.75.75,0,0,0,0,1.5H5.31a6.14,6.14,0,0,0,5.29,3h7.65a2.25,2.25,0,0,0,2.25-2.25,2.31,2.31,0,0,0-.16-.83A2.24,2.24,0,0,0,22,18.73a2.32,2.32,0,0,0-.13-.75A2.26,2.26,0,0,0,24,15.73Z"></path><path d="M.75,13h5a.75.75,0,0,0,.62-.33,5.92,5.92,0,0,1,2.46-2.11.76.76,0,0,0,.36-1,.75.75,0,0,0-1-.36,7.45,7.45,0,0,0-2.83,2.3H.75a.75.75,0,0,0,0,1.5Z"></path><path d="M15.08,10.71a4.41,4.41,0,0,0-3-.7.48.48,0,0,0-.43.56,4.39,4.39,0,0,0,1.39,2.7,4.16,4.16,0,0,0,2.66.71l.16,0v1.52a.75.75,0,1,0,1.5,0V14l.16,0a4.12,4.12,0,0,0,2.65-.71,4.34,4.34,0,0,0,1.39-2.7.47.47,0,0,0-.43-.56,4.42,4.42,0,0,0-3,.7,3.25,3.25,0,0,0-.81,1V9.22a.41.41,0,0,0,.16,0,4.18,4.18,0,0,0,2.65-.71A4.34,4.34,0,0,0,21.6,5.83a.46.46,0,0,0-.43-.55,4.35,4.35,0,0,0-3,.69,3.42,3.42,0,0,0-.81,1V6a4.91,4.91,0,0,0,.91-2.65A5.22,5.22,0,0,0,17.07.23a.54.54,0,0,0-.84,0A5.16,5.16,0,0,0,15,3.33,4.91,4.91,0,0,0,15.9,6V7a3.3,3.3,0,0,0-.82-1,4.34,4.34,0,0,0-3-.69.47.47,0,0,0-.43.55,4.39,4.39,0,0,0,1.39,2.71,4.22,4.22,0,0,0,2.66.71.41.41,0,0,0,.16,0v2.46A3.15,3.15,0,0,0,15.08,10.71Z"></path></g></svg>