<svg xmlns="http://www.w3.org/2000/svg" viewBox="0 0 24 24" height="16" width="16"><g><path d="M13.15,14.22a2.75,2.75,0,0,1-2,2.64V13.22H9.65v3.64a2.74,2.74,0,0,1-2-2.64v-1H6.15v1a4.24,4.24,0,0,0,3.5,4.18v4.32a.75.75,0,0,0,1.5,0V18.4a4.25,4.25,0,0,0,3.5-4.18v-1h-1.5Z"></path><path d="M23,8.64l-2.78-.29-1.51-.16q0-.43-.09-.87L20.05,7l2.5-.56a1,1,0,1,0-.43-1.95l-2.54.57-1.47.33a5.83,5.83,0,0,0-.23-.58l1.17-1.07L20.92,2A1,1,0,0,0,21,.61,1,1,0,0,0,19.57.54L17.9,2.07l-1.12,1a2.06,2.06,0,0,0-1.25-.41,2.27,2.27,0,0,0-.62.09L10.8,4.06a.78.78,0,0,1,0,.22V8.07a.75.75,0,0,1-1.5,0V4.52L1.89,6.84A2.5,2.5,0,0,0,.27,8.42l0,.11a2.53,2.53,0,0,0,.31,2.06,3.12,3.12,0,0,0,.32.4,2.54,2.54,0,0,0,1.77.73H4.11V9.11a.75.75,0,0,1,1.5,0v2.61h7.9V8.07a.75.75,0,0,1,1.5,0v3.65h1.58a2.07,2.07,0,0,0,2-1.52l1.51.15,2.66.28h.1a1,1,0,0,0,1-.9A1,1,0,0,0,23,8.64Z"></path></g></svg>