<svg xmlns="http://www.w3.org/2000/svg" viewBox="0 0 24 24" height="16" width="16"><g><path d="M16.1,13.73a.51.51,0,0,0-.71,0l-.71.71a.5.5,0,0,0-.14.35.54.54,0,0,0,.14.36l2.8,2.79a1,1,0,0,0,1.41-1.41Z"></path><path d="M12,0A12,12,0,1,0,24,12,12,12,0,0,0,12,0ZM5.07,19a.48.48,0,0,1-.36-.15A10,10,0,0,1,18.84,4.71a.51.51,0,0,1,.15.36.5.5,0,0,1-.14.36L13.67,10.6a.5.5,0,0,1-.71,0L11.61,9.25a.51.51,0,0,1-.15-.36.48.48,0,0,1,.16-.36c.16-.15.33-.29.52-.44a1,1,0,0,0,.08-1.44L10.43,4.86a1,1,0,0,0-.77-.29,1,1,0,0,0-.72.37C7.25,7,5.69,7.33,5.1,7.36a1,1,0,0,0-.95.89,4.37,4.37,0,0,0,1.26,3.52A4.15,4.15,0,0,0,8.32,13l.41,0a1,1,0,0,0,.89-.93,4,4,0,0,1,.29-1.18.25.25,0,0,1,.18-.15.24.24,0,0,1,.23.07L11.55,12a.5.5,0,0,1,0,.71L5.43,18.85A.5.5,0,0,1,5.07,19ZM12,22a9.86,9.86,0,0,1-4.77-1.22A.48.48,0,0,1,7,20.42.52.52,0,0,1,7.11,20L20,7.11A.52.52,0,0,1,20.42,7a.48.48,0,0,1,.36.26A9.86,9.86,0,0,1,22,12,10,10,0,0,1,12,22Z"></path></g></svg>