<svg xmlns="http://www.w3.org/2000/svg" viewBox="0 0 24 24" height="16" width="16"><g><path d="M5.46,16.58a7.1,7.1,0,0,1,3.31-2.91,7.15,7.15,0,0,1,4.34.14,5.75,5.75,0,0,0,3.47.19,6.63,6.63,0,0,0,2.73-2.1,7.57,7.57,0,0,1,3.82-2.64l-.89-2.54A5.74,5.74,0,0,0,19,8.92a8.21,8.21,0,0,1-3.44,2.56,7.36,7.36,0,0,1-4.48-.13,5.57,5.57,0,0,0-3.33-.2,5.59,5.59,0,0,0-2.48,2.29A7,7,0,0,1,1.5,16.55l.89,2.53C3.85,18.78,4.6,17.75,5.46,16.58Z"></path><path d="M3.68,12.26a7.28,7.28,0,0,1,3.42-3,7.32,7.32,0,0,1,4.49.14,5.63,5.63,0,0,0,3.33.19,6.36,6.36,0,0,0,2.62-2,7.75,7.75,0,0,1,4-2.75L20.83,2.7a1.57,1.57,0,0,0-1-1A1.49,1.49,0,0,0,18.46,2a10.07,10.07,0,0,0-1.85,2,6,6,0,0,1-2.72,2.41,6,6,0,0,1-3.62-.18,7,7,0,0,0-4.2-.15A6.89,6.89,0,0,0,2.89,8.83a7.74,7.74,0,0,1-2,2.08,1.55,1.55,0,0,0-.69,1.84h0l.67,1.9C2.15,14.35,2.84,13.4,3.68,12.26Z"></path><path d="M20.42,12.91a8,8,0,0,1-3.34,2.51,7.22,7.22,0,0,1-4.34-.15,5.86,5.86,0,0,0-3.48-.19,5.87,5.87,0,0,0-2.59,2.38,6.7,6.7,0,0,1-3.78,3.05l.28.79a1.57,1.57,0,0,0,1,1,1.61,1.61,0,0,0,.44.06,1.51,1.51,0,0,0,.91-.3,10.12,10.12,0,0,0,1.85-2,6,6,0,0,1,2.72-2.41,6,6,0,0,1,3.62.18,7,7,0,0,0,4.2.15,6.87,6.87,0,0,0,3.18-2.74,7.5,7.5,0,0,1,2-2.09,1.55,1.55,0,0,0,.69-1.83l-.2-.58A6,6,0,0,0,20.42,12.91Z"></path></g></svg>