<svg xmlns="http://www.w3.org/2000/svg" viewBox="0 0 24 24" height="16" width="16"><g><g><path d="M16.15,21a.25.25,0,0,0,.22-.12.25.25,0,0,0,0-.24L15,17.83A1.49,1.49,0,0,0,13.63,17H7.87a1.49,1.49,0,0,0-1.34.83L5.12,20.64a.25.25,0,0,0,0,.24.25.25,0,0,0,.22.12Z"></path><path d="M5.25,22a.5.5,0,0,0-.5.5A1.5,1.5,0,0,0,6.25,24h9a1.5,1.5,0,0,0,1.5-1.5.5.5,0,0,0-.5-.5Z"></path></g><path d="M19.25,8a3,3,0,0,0-3-3H16a.23.23,0,0,1-.18-.08.26.26,0,0,1-.07-.19A7,7,0,0,0,15.75,4a2,2,0,0,0-2-2h-1.5A.25.25,0,0,1,12,1.75v-.5a1.25,1.25,0,0,0-2.5,0v.5A.25.25,0,0,1,9.25,2H7.75a2,2,0,0,0-2,2c0,.16.9,9.38.9,9.38a2.61,2.61,0,0,0,2.58,2.37h3a2.61,2.61,0,0,0,2.49-1.89.5.5,0,0,1,.48-.36h1a3,3,0,0,0,3-3ZM7.38,5.56A.5.5,0,0,1,7.88,5h5.74a.5.5,0,0,1,.5.56l-.26,2.25a.5.5,0,0,1-.5.44H8.14a.5.5,0,0,1-.5-.44Zm9.87,4.94a1,1,0,0,1-1,1H15.3a.27.27,0,0,1-.19-.08.22.22,0,0,1-.06-.19l.39-4A.25.25,0,0,1,15.69,7h.56a1,1,0,0,1,1,1Z"></path></g></svg>