<svg xmlns="http://www.w3.org/2000/svg" viewBox="0 0 24 24" height="16" width="16"><path d="M13.08,19.32a.5.5,0,0,0-.46.31.48.48,0,0,0,.11.54l.74.75a6.14,6.14,0,0,0,4.36,1.8h0a6.17,6.17,0,0,0,4.29-10.6.49.49,0,0,1-.14-.46A8.09,8.09,0,0,0,12.34,2a.49.49,0,0,1-.46-.14A6.13,6.13,0,0,0,7.45,0h0A6.17,6.17,0,0,0,3.06,10.51l.77.76a.5.5,0,0,0,.85-.35V8.16a.75.75,0,0,1,.75-.75h0a.76.76,0,0,1,.75.76v3.25A6.37,6.37,0,0,1,4.3,16L.4,19.86a1.38,1.38,0,0,0,0,1.94l1.8,1.8a1.38,1.38,0,0,0,1.94,0L8,19.7a6.37,6.37,0,0,1,4.54-1.88h3.26a.76.76,0,0,1,.75.75.75.75,0,0,1-.75.75Zm.61-5.13L10,14.9a.79.79,0,0,1-.68-.2A.76.76,0,0,1,9.1,14l.71-3.72a.75.75,0,0,1,1.47.28l-.36,1.91a.48.48,0,0,0,.58.58l1.91-.36a.75.75,0,0,1,.28,1.47Z"></path></svg>