<svg xmlns="http://www.w3.org/2000/svg" viewBox="0 0 24 24" height="16" width="16"><g><path d="M19,12H13a4,4,0,0,0-4,3.43.49.49,0,0,0,.12.4.49.49,0,0,0,.38.17H22.46a.49.49,0,0,0,.38-.17.49.49,0,0,0,.12-.4A4,4,0,0,0,19,12Zm-5.75,2.5a.75.75,0,1,1,.75-.75A.76.76,0,0,1,13.25,14.5ZM16,15a.75.75,0,1,1,.75-.75A.76.76,0,0,1,16,15Zm2.75-.5a.75.75,0,1,1,.75-.75A.76.76,0,0,1,18.75,14.5Z"></path><path d="M24,19a1.5,1.5,0,0,1-1.5,1.5H9.5A1.5,1.5,0,0,1,8,19H8a1.5,1.5,0,0,1,1.5-1.5h13A1.5,1.5,0,0,1,24,19Z"></path><path d="M22.41,22a.49.49,0,0,1,.41.21.5.5,0,0,1,.07.46A2,2,0,0,1,21,24H11a2,2,0,0,1-1.89-1.33.5.5,0,0,1,.07-.46A.49.49,0,0,1,9.59,22Z"></path><path d="M14,7.68a1.48,1.48,0,0,0-.37-1.17A1.46,1.46,0,0,0,12.5,6h-4a.5.5,0,0,1-.38-.17A.47.47,0,0,1,8,5.45l.31-2.91a.49.49,0,0,1,.2-.35.53.53,0,0,1,.39-.09l3.9.75a1,1,0,0,0,.38-2L8.75,0A2,2,0,0,0,6.39,1.79L6,5.55a.51.51,0,0,1-.5.45h-4a1.5,1.5,0,0,0-1.13.51A1.52,1.52,0,0,0,0,7.69l1.88,15A1.49,1.49,0,0,0,3.37,24H6.75a.5.5,0,0,0,.5-.5v-1a.5.5,0,0,0-.5-.5H4.26a.51.51,0,0,1-.5-.44l-1.62-13a.47.47,0,0,1,.12-.39A.48.48,0,0,1,2.63,8H5.17a.5.5,0,0,1,.37.17.52.52,0,0,1,.13.38L4.51,19.39a1,1,0,0,0,2,.22L7.69,8.45A.49.49,0,0,1,8.18,8h3.19a.48.48,0,0,1,.37.17.47.47,0,0,1,.12.39l-.14,1.13a.51.51,0,0,0,.12.39.52.52,0,0,0,.38.17h1a.5.5,0,0,0,.49-.44Z"></path></g></svg>