<svg xmlns="http://www.w3.org/2000/svg" viewBox="0 0 24 24" height="16" width="16"><g><path d="M18.36,12.66a.52.52,0,0,0-.16-.41.47.47,0,0,0-.42-.13,12.26,12.26,0,0,1-1.9.15A11.3,11.3,0,0,1,7.41,8.51.52.52,0,0,0,7,8.34a.5.5,0,0,0-.38.23,5.87,5.87,0,0,0-.55,1.09.48.48,0,0,0,0,.45,9.89,9.89,0,0,0,11.74,3.94.5.5,0,0,0,.32-.34A7.21,7.21,0,0,0,18.36,12.66Z"></path><path d="M14.39,16.14a11.26,11.26,0,0,1-8.3-3.58.25.25,0,0,0-.43.2,6.34,6.34,0,0,0,.43,1.66.26.26,0,0,1,0,.24.28.28,0,0,1-.22.11A9.25,9.25,0,0,0,.49,16.5a1,1,0,0,0,.34,1.89,2,2,0,0,1,1.74,1.94,1,1,0,0,0,1.1,1.1,2,2,0,0,1,1.94,1.74,1,1,0,0,0,.83.81.55.55,0,0,0,.18,0,1,1,0,0,0,.88-.49,9.32,9.32,0,0,0,1.73-5.34A.27.27,0,0,1,9.34,18a.21.21,0,0,1,.24,0,6.4,6.4,0,0,0,2.42.47,6.33,6.33,0,0,0,4.65-2,.26.26,0,0,0,0-.29.26.26,0,0,0-.27-.12A11.59,11.59,0,0,1,14.39,16.14Z"></path><path d="M23.51,7.5a1,1,0,0,0-.34-1.89,2,2,0,0,1-1.74-1.94,1,1,0,0,0-.3-.8,1,1,0,0,0-.8-.3A2,2,0,0,1,18.39.83,1,1,0,0,0,16.5.49h0a9.25,9.25,0,0,0-1.73,5.35.28.28,0,0,1-.11.22.26.26,0,0,1-.24,0,6.39,6.39,0,0,0-5.89.55.49.49,0,0,0-.11.74,9.84,9.84,0,0,0,9.25,3.23.47.47,0,0,0,.34-.24.49.49,0,0,0,0-.41c0-.13-.09-.26-.14-.38a.23.23,0,0,1,0-.24.3.3,0,0,1,.23-.11A9.64,9.64,0,0,0,23.51,7.5Z"></path></g></svg>