<svg xmlns="http://www.w3.org/2000/svg" viewBox="0 0 24 24" height="16" width="16"><g><circle cx="18.75" cy="13.25" r="1.75"></circle><circle cx="6" cy="15" r="1"></circle><circle cx="10.25" cy="17.25" r="1.75"></circle><path d="M24,8.8C24,3.92,18.48.69,13.38.5A2,2,0,0,0,12,1L.69,10.51A1.61,1.61,0,0,0,.27,11,1.78,1.78,0,0,0,0,12v5.2a1,1,0,0,0,1,1,.87.87,0,0,1,.91.82.84.84,0,0,1-.58.78A1.94,1.94,0,0,0,0,21.59,1.83,1.83,0,0,0,.68,23,1.91,1.91,0,0,0,2,23.5l.26,0L22.28,21A1.93,1.93,0,0,0,24,19.09V8.8ZM3.36,21.32a.26.26,0,0,1-.26-.14.25.25,0,0,1,0-.28,2.78,2.78,0,0,0-.85-4.46A.5.5,0,0,1,2,16V12.86a.51.51,0,0,1,.44-.5l19-2.36a.51.51,0,0,1,.39.12.5.5,0,0,1,.17.38v8.06a.51.51,0,0,1-.44.5Z"></path><circle cx="16" cy="17" r="1"></circle></g></svg>