<svg xmlns="http://www.w3.org/2000/svg" viewBox="0 0 24 24" height="16" width="16"><g><path d="M3.81,14.62a3.73,3.73,0,0,1,2.38-6,4.26,4.26,0,0,0,4.22,4.22A3.78,3.78,0,0,1,10,14a8.11,8.11,0,0,0,1.58-.24,6.94,6.94,0,0,0,1.86-1.45c.46-.44,1-.92,1.51-1.35a7.7,7.7,0,0,0-4-6.56,1,1,0,0,0-.87,0A1,1,0,0,0,9.6,5a4.9,4.9,0,0,1-.67,1.61,4.05,4.05,0,0,1-.69-2.23A3.84,3.84,0,0,1,9.61,1.72,1,1,0,0,0,9.8.52,1,1,0,0,0,8.7.05,11.79,11.79,0,0,0,0,11.16a7.34,7.34,0,0,0,2,5.05A3,3,0,0,1,3.81,14.62Z"></path><path d="M22,10.57a1.43,1.43,0,0,1-.42.9c-3.21-1.89-5.45.24-7.12,1.82A7.12,7.12,0,0,1,12,15.09a17.8,17.8,0,0,1-3.86.37c-2.56.07-5,.14-5,2C3.17,19,6.25,24,13,24a10.66,10.66,0,0,0,10.17-7.1,5,5,0,0,0-.17-4.1,3.35,3.35,0,0,0,.79-1.33,4.29,4.29,0,0,0,.15-.73A3.76,3.76,0,0,0,21.8,7a1,1,0,0,0-.93,1.78A1.88,1.88,0,0,1,22,10.08,1.69,1.69,0,0,1,22,10.57Zm-10.1,9.24a.74.74,0,0,1,.88-.59c1.92.38,3.46.42,5.91-2.64a.75.75,0,1,1,1.17.94c-2.16,2.7-3.93,3.38-5.58,3.38a9,9,0,0,1-1.79-.21A.75.75,0,0,1,11.89,19.81Z"></path></g></svg>