<svg xmlns="http://www.w3.org/2000/svg" viewBox="0 0 24 24" height="16" width="16"><path d="M21.46,2.68A1.36,1.36,0,0,0,20,2.89c-.56.63.05,1.49.48,1.81.86.65.81,1.88,0,2.92-2.94-1.45-4.66.19-6.48,1.92a12,12,0,0,1-3.77,2.73,16.42,16.42,0,0,1-6.2.81c-1.62,0-2.79,0-3.41.59a1.33,1.33,0,0,0-.39,1C.18,16.54,4,22,11.33,22a12.09,12.09,0,0,0,11.52-8,5.49,5.49,0,0,0-.16-4.46,10.09,10.09,0,0,0,1.11-3A3.45,3.45,0,0,0,21.46,2.68ZM10.11,17.43a.74.74,0,0,1,.88-.59c2.21.44,4.13.49,7-3.12a.74.74,0,0,1,1-.12.75.75,0,0,1,.12,1.05c-2.49,3.12-4.52,3.9-6.42,3.9a10.93,10.93,0,0,1-2.06-.24A.75.75,0,0,1,10.11,17.43Z"></path></svg>