<svg xmlns="http://www.w3.org/2000/svg" viewBox="0 0 24 24" height="16" width="16"><g><path d="M18.92,9.61a.49.49,0,0,0,.66,0,5.17,5.17,0,0,1,2.73-1.33.51.51,0,0,0,.44-.5V7.25a3.5,3.5,0,0,0-2-3.17.5.5,0,0,1-.24-.67A2.51,2.51,0,0,1,22.75,2a1,1,0,0,0,0-2,4.5,4.5,0,0,0-4.36,3.39,1,1,0,0,1-.56.66,3.52,3.52,0,0,0-2.08,3.2v.53a.51.51,0,0,0,.44.5A5.29,5.29,0,0,1,18.92,9.61Z"></path><path d="M19.82,11.49a.73.73,0,0,1-.57.26.71.71,0,0,1-.56-.26,5.4,5.4,0,0,0-2.3-1.65.5.5,0,0,0-.44.09.47.47,0,0,0-.2.39v1.13a6.91,6.91,0,0,1-4.41,6.47C8.25,19.14,4.85,18.08,2,15A1,1,0,0,0,.29,16,11.28,11.28,0,0,0,11,24c6.35,0,11.72-5.13,11.72-11.21V10.32a.51.51,0,0,0-.2-.4.53.53,0,0,0-.44-.08A5.37,5.37,0,0,0,19.82,11.49Z"></path></g></svg>