<svg xmlns="http://www.w3.org/2000/svg" viewBox="0 0 24 24" height="16" width="16"><path fill-rule="evenodd" d="M6.47087 1.95528L9.68686 3.28599L4.23301 4.31501C4.02947 3.88523 3.98496 3.35105 4.17087 2.85528C4.47087 1.95528 5.57087 1.55528 6.47087 1.95528ZM22.7646 7.9473L21.3161 8.11324C20.8675 7.56379 20.2756 6.973 19.5333 6.59696L19.1051 6.35346L22.5354 5.96048C23.084 5.89718 23.5801 6.29064 23.6434 6.83928C23.7067 7.38793 23.3132 7.88401 22.7646 7.9473ZM11.2709 17.0965C10.6116 17.591 9.70508 17.4261 9.29301 16.7668C8.79853 16.1075 8.96336 15.201 9.62267 14.7889L11.1885 13.7175C11.8478 13.223 12.7544 13.3879 13.1665 14.0472C13.6609 14.7065 13.4961 15.613 12.8368 16.0251L11.2709 17.0965ZM6.80314 13.5079C7.29763 14.1672 8.20418 14.332 8.78108 13.8375L10.3469 12.7662C11.0063 12.3541 11.1711 11.4475 10.6766 10.7882C10.2645 10.1289 9.35798 9.96408 8.69866 10.4586L7.1328 11.5299C6.47349 11.942 6.30866 12.8486 6.80314 13.5079ZM13.375 4.82074C12.9798 4.65311 12.6152 4.65032 12.3328 4.75273C12.0932 4.83962 11.9128 5.00222 11.8231 5.20412C11.5423 5.83583 11.7536 6.49567 12.2731 6.82874L16.4382 9.1783C16.6228 9.28239 16.7506 9.45677 16.7986 9.65473C16.8009 9.66398 16.803 9.67329 16.8049 9.68264C16.8214 9.76422 16.8245 9.84936 16.8126 9.93489L16.8 10.0642C16.7928 10.1582 16.7856 10.2977 16.7872 10.4688C16.7903 10.8145 16.8288 11.2708 16.9628 11.7355C17.0964 12.1991 17.3184 12.6491 17.6746 13.0137C18.0241 13.3714 18.5362 13.682 19.3145 13.8248C19.7219 13.8996 19.9915 14.2905 19.9167 14.6979C19.8419 15.1053 19.4511 15.375 19.0436 15.3002C17.9789 15.1047 17.1808 14.6547 16.6017 14.0619C16.0293 13.476 15.7044 12.7856 15.5214 12.151C15.3389 11.5176 15.2912 10.918 15.2872 10.4823C15.2865 10.4002 15.2873 10.3233 15.2891 10.2523L14.8029 9.978L11.9131 10.4141C12.2023 10.9708 12.28 11.5984 12.1571 12.1834C12.9532 12.218 13.7222 12.6119 14.1977 13.3397C15.0665 14.5459 14.7981 16.253 13.5247 17.0691L12.6829 17.645C13.7205 18.4789 15.0216 18.8861 16.3042 18.8861H18.1036L22.8764 21.6279C23.1085 21.7612 23.394 21.7607 23.6257 21.6266C23.8574 21.4926 24 21.2452 24 20.9775V13.0315L23.1705 12.5003C23.1599 12.4934 23.1494 12.4863 23.1391 12.479L22.3885 11.9429C22.3273 11.8991 22.2729 11.8464 22.2273 11.7864L20.2517 9.18691L20.196 9.11355C19.8232 8.64869 19.4013 8.2347 18.9371 7.97828C18.9061 7.96118 18.875 7.94479 18.8437 7.92913C18.8317 7.92316 18.8199 7.91687 18.8083 7.91027L13.375 4.82074ZM23.0014 3.01184C23.1171 3.55188 22.7731 4.08343 22.233 4.1991L17.2089 5.27522L14.5965 3.78978C14.6057 3.78754 14.615 3.78543 14.6243 3.78343L21.8142 2.24346C22.3542 2.12779 22.8858 2.47181 23.0014 3.01184ZM10.4184 4.67444L0.921267 6.46635C0.378558 6.56874 0.0216155 7.09171 0.124013 7.63442C0.226411 8.17712 0.749374 8.53407 1.29208 8.43167L10.3638 6.72002C10.1324 6.08055 10.1391 5.35465 10.4184 4.67444ZM1.2009 8.96507L10.815 7.51532C11.001 7.74277 11.2271 7.94395 11.4908 8.10874C11.5003 8.1147 11.51 8.12045 11.5198 8.12597L13.3462 9.15625L1.49912 10.9427C0.953006 11.0251 0.443538 10.6491 0.361188 10.103C0.278838 9.55689 0.65479 9.04742 1.2009 8.96507Z" clip-rule="evenodd"></path></svg>