<svg xmlns="http://www.w3.org/2000/svg" viewBox="0 0 24 24" height="16" width="16"><g><path d="M4.06,2.58a.5.5,0,0,0,.38.17H5.76a.49.49,0,0,0,.45-.29.51.51,0,0,0-.08-.54L4.9.51A1.5,1.5,0,0,0,3.77,0H1A1,1,0,0,0,1,2H3.55Z"></path><path d="M24,4.5A4.5,4.5,0,0,0,15.78,2a.52.52,0,0,0,0,.51.5.5,0,0,0,.44.27h1.32a.5.5,0,0,0,.33-.12A2.5,2.5,0,1,1,21,6.51a2.82,2.82,0,0,1-.42.62L19.3,8.57a.28.28,0,0,0,0,.28A.27.27,0,0,0,19.5,9,4.51,4.51,0,0,0,24,4.5Z"></path><path d="M16.54,23a1,1,0,0,0-1-1h-3a.5.5,0,0,1-.5-.5V14.78a.5.5,0,0,1,.12-.33l7.34-8.32a1.19,1.19,0,0,0,.21-1.2,1,1,0,0,0-.92-.68H3.25a1,1,0,0,0-.92.68,1.19,1.19,0,0,0,.21,1.2h0l7.34,8.32a.5.5,0,0,1,.12.33V21.5a.5.5,0,0,1-.5.5h-3a1,1,0,1,0,0,2h9A1,1,0,0,0,16.54,23ZM5.26,6.14A.19.19,0,0,1,5.43,6H16.57a.19.19,0,0,1,.17.13.22.22,0,0,1,0,.22L14.57,8.59a.48.48,0,0,1-.36.16H7.79a.48.48,0,0,1-.36-.16L5.31,6.36A.22.22,0,0,1,5.26,6.14Z"></path></g></svg>