<svg xmlns="http://www.w3.org/2000/svg" viewBox="0 0 24 24" height="16" width="16"><g><path d="M10,3h4a.5.5,0,0,0,.5-.5v-1A1.5,1.5,0,0,0,13,0H11A1.5,1.5,0,0,0,9.5,1.5v1A.5.5,0,0,0,10,3Z"></path><path d="M18.24,10.18a.49.49,0,0,0-.38-.18H6.14a.49.49,0,0,0-.38.18.47.47,0,0,0-.11.41L7.82,23.16a1,1,0,0,0,1,.84h6.38a1,1,0,0,0,1-.84l2.17-12.57A.47.47,0,0,0,18.24,10.18Z"></path><path d="M6.77,8.5H17.23a.51.51,0,0,0,.43-.24.48.48,0,0,0,0-.48L16.59,5.61A2,2,0,0,0,14.8,4.5H9.2A2,2,0,0,0,7.41,5.61L6.32,7.78a.48.48,0,0,0,0,.48A.52.52,0,0,0,6.77,8.5Z"></path></g></svg>