<svg xmlns="http://www.w3.org/2000/svg" viewBox="0 0 24 24" height="16" width="16"><g><path d="M4.62,9.76a.47.47,0,0,0,.27-.35A.49.49,0,0,0,4.78,9a4.81,4.81,0,0,1-.52-.67.25.25,0,0,1,.18-.39A6.55,6.55,0,0,0,8.65,5.83a.52.52,0,0,0,.07-.56A.5.5,0,0,0,8.24,5,13.58,13.58,0,0,1,6.56,5a.23.23,0,0,1-.2-.14.25.25,0,0,1,0-.25A7.27,7.27,0,0,1,9.3,2.38.52.52,0,0,0,9.59,2a.5.5,0,0,0-.22-.46C5.53-1.07.24,3.34,1.19,6.22a11.53,11.53,0,0,0,2,3.86.51.51,0,0,0,.64.12C4,10.05,4.33,9.9,4.62,9.76Z"></path><path d="M19.38,9.76a.5.5,0,0,1-.28-.35A.52.52,0,0,1,19.22,9a4.81,4.81,0,0,0,.52-.67.25.25,0,0,0,0-.25.26.26,0,0,0-.2-.14,6.55,6.55,0,0,1-4.21-2.09.52.52,0,0,1-.07-.56A.5.5,0,0,1,15.76,5a13.58,13.58,0,0,0,1.68,0,.23.23,0,0,0,.2-.14.25.25,0,0,0,0-.25,7.27,7.27,0,0,0-2.92-2.2A.52.52,0,0,1,14.41,2a.48.48,0,0,1,.22-.46c3.84-2.57,9.13,1.84,8.18,4.72a11.53,11.53,0,0,1-1.95,3.86.51.51,0,0,1-.64.12C20,10.05,19.67,9.9,19.38,9.76Z"></path><path d="M23.53,19.32a1,1,0,0,0,.32-1.38,8.67,8.67,0,0,0-3.69-3.16.57.57,0,0,1-.28-.27.51.51,0,0,1,0-.4c.08-.2.19-.43.28-.65a1.49,1.49,0,0,0-.64-1.93h0A15.37,15.37,0,0,0,12,9.64h0a15.37,15.37,0,0,0-7.52,1.89,1.49,1.49,0,0,0-.64,1.93c.09.22.2.45.28.65a.51.51,0,0,1,0,.4.57.57,0,0,1-.28.27A8.67,8.67,0,0,0,.15,17.94,1,1,0,0,0,1.85,19a6.39,6.39,0,0,1,2.89-2.43.5.5,0,0,1,.6.25c.23.45.47.9.75,1.34a.47.47,0,0,1,.06.4.52.52,0,0,1-.25.31,9.8,9.8,0,0,0-3.14,2.83A1,1,0,0,0,3,23.1a1,1,0,0,0,.56.17,1,1,0,0,0,.83-.44,7.08,7.08,0,0,1,3.11-2.47.5.5,0,0,1,.48.11,10.48,10.48,0,0,0,2.51,1.64,1.43,1.43,0,0,0,.64.15h1.68a1.43,1.43,0,0,0,.64-.15A10.48,10.48,0,0,0,16,20.47a.48.48,0,0,1,.47-.11,6.93,6.93,0,0,1,3.12,2.47,1,1,0,0,0,.83.44A1,1,0,0,0,21,23.1a1,1,0,0,0,.27-1.39,9.55,9.55,0,0,0-3.14-2.83.54.54,0,0,1-.25-.32.53.53,0,0,1,.06-.39,13.74,13.74,0,0,0,.75-1.34.5.5,0,0,1,.6-.25A6.39,6.39,0,0,1,22.15,19a1,1,0,0,0,1.38.31Zm-16.16-7a.75.75,0,0,1,1,.36l.86,1.83a.73.73,0,0,1-.36,1,.72.72,0,0,1-.32.08.76.76,0,0,1-.68-.43L7,13.3A.74.74,0,0,1,7.37,12.3Zm5.38,2.17a.75.75,0,0,1-1.5,0v-2a.75.75,0,0,1,1.5,0Zm1.76,0,.86-1.83a.75.75,0,1,1,1.36.64l-.86,1.83a.76.76,0,0,1-.68.43.72.72,0,0,1-.32-.08A.73.73,0,0,1,14.51,14.49Z"></path></g></svg>