<svg xmlns="http://www.w3.org/2000/svg" viewBox="0 0 24 24" height="16" width="16"><g><path d="M20.72,4.84v0a1.28,1.28,0,0,0,0-.19L20.49,1.3A1,1,0,0,0,18.7.77l-.88,1.15A11.66,11.66,0,0,0,.35,12a11.6,11.6,0,0,0,10.5,11.59H11a1,1,0,0,0,.1-2A9.65,9.65,0,1,1,16.59,3.52l-1,1.27a1,1,0,0,0,0,1.14,1,1,0,0,0,.84.47l.21,0,3.22-.69a1,1,0,0,0,.58-.26,1,1,0,0,0,.3-.57Z"></path><path d="M18.72,19a9.63,9.63,0,0,1-4.41,2.44,1,1,0,0,0-.73,1.21,1,1,0,0,0,1.21.73,11.58,11.58,0,0,0,5.32-2.94A1,1,0,0,0,18.72,19Z"></path><path d="M22.69,11.49a1,1,0,0,0-1,1A9.46,9.46,0,0,1,20.79,16a1,1,0,0,0,.49,1.32,1.06,1.06,0,0,0,.42.09,1,1,0,0,0,.91-.58,11.81,11.81,0,0,0,1-4.34A1,1,0,0,0,22.69,11.49Z"></path><path d="M21.21,9.11a1,1,0,0,0,.95.69,1,1,0,0,0,.3,0,1,1,0,0,0,.66-1.26A13.54,13.54,0,0,0,22.51,7a1,1,0,0,0-1.81.86A10,10,0,0,1,21.21,9.11Z"></path><path d="M4.58,15.39a.41.41,0,0,0,.17.4A7.66,7.66,0,0,0,9.5,17.21h4.7A7.66,7.66,0,0,0,19,15.79c.14-.1.16-.21.16-.4a.6.6,0,0,0-.6-.6H5.19A.6.6,0,0,0,4.58,15.39Z"></path><path d="M10.5,7.61a5.77,5.77,0,0,0-4.4,5.6.3.3,0,0,0,.3.3H17.3a.3.3,0,0,0,.3-.3,5.77,5.77,0,0,0-4.4-5.6.15.15,0,0,1-.11-.08.15.15,0,0,1,0-.13,1.26,1.26,0,0,0,.12-.55,1.36,1.36,0,1,0-2.72,0,1.42,1.42,0,0,0,.11.55.15.15,0,0,1,0,.13A.14.14,0,0,1,10.5,7.61Zm.68,1a.45.45,0,0,1,.13.9,3.84,3.84,0,0,0-2.17,1.1.42.42,0,0,1-.32.13.45.45,0,0,1-.32-.13.45.45,0,0,1,0-.64A4.67,4.67,0,0,1,11.18,8.56Z"></path></g></svg>