<svg xmlns="http://www.w3.org/2000/svg" viewBox="0 0 24 24" height="16" width="16"><path d="M12,0A12,12,0,1,0,24,12,12,12,0,0,0,12,0Zm8,9a1,1,0,1,1-1,1A1,1,0,0,1,20,9ZM15.5,3A1.5,1.5,0,1,1,14,4.5,1.5,1.5,0,0,1,15.5,3ZM12,8.5A3.5,3.5,0,1,1,8.5,12,3.5,3.5,0,0,1,12,8.5ZM8.5,4a1,1,0,1,1-1,1A1,1,0,0,1,8.5,4ZM4.75,7.5A1.25,1.25,0,1,1,3.5,8.75,1.25,1.25,0,0,1,4.75,7.5ZM12,22a10,10,0,0,1-9.41-6.6.5.5,0,0,1,.11-.51.49.49,0,0,1,.5-.15,5,5,0,0,0,1.45.2,5.38,5.38,0,0,0,2-.38.49.49,0,0,1,.61.22,5.51,5.51,0,0,0,9.5,0,.49.49,0,0,1,.61-.22,5.38,5.38,0,0,0,2,.38,5,5,0,0,0,1.45-.2.49.49,0,0,1,.5.15.5.5,0,0,1,.11.51A10,10,0,0,1,12,22Z"></path></svg>