<svg xmlns="http://www.w3.org/2000/svg" viewBox="0 0 24 24" height="16" width="16"><g><path d="M12,0C7.58,0,4.5,5.69,4.5,11.25a.71.71,0,0,0,.64.75H18.86a.71.71,0,0,0,.64-.75C19.5,5.69,16.42,0,12,0Zm-.15,3.48c-1,0-1.92.79-2.64,2.16A.64.64,0,0,1,8.65,6a.65.65,0,0,1-.34-.11.82.82,0,0,1-.21-1C9.06,3,10.43,2,11.85,2a.71.71,0,0,1,.65.75A.7.7,0,0,1,11.85,3.48Z"></path><path d="M20.77,14.72a1,1,0,0,0-.2-.84,1,1,0,0,0-.78-.38H4.21a1,1,0,0,0-.78.38,1,1,0,0,0-.2.84,12.76,12.76,0,0,0,3.61,6.73A.49.49,0,0,1,7,22c-.09.21-.18.42-.25.63A1,1,0,0,0,7.66,24h8.68a1,1,0,0,0,.94-1.34c-.07-.21-.16-.42-.25-.63a.49.49,0,0,1,.13-.58A12.76,12.76,0,0,0,20.77,14.72Z"></path></g></svg>