<svg xmlns="http://www.w3.org/2000/svg" viewBox="0 0 24 24" height="16" width="16"><g><path d="M24,14a1,1,0,0,0-1-1H1a1,1,0,0,0,0,2,.62.62,0,0,1,.61.49l.72,3.23a1,1,0,0,0,1,.78H6.7a1,1,0,0,0,1-.78l.59-2.62a.24.24,0,0,1,.48,0l.59,2.62a1,1,0,0,0,1,.78h3.4a1,1,0,0,0,1-.78l.59-2.62a.24.24,0,0,1,.48,0l.59,2.62a1,1,0,0,0,1,.78h3.4a1,1,0,0,0,1-.78l.72-3.23A.62.62,0,0,1,23,15,1,1,0,0,0,24,14Z"></path><path d="M19,4.5c-1.37,0-2.55,1.06-3.27,2.71a.25.25,0,0,1-.46,0C14.55,5.56,13.37,4.5,12,4.5S9.45,5.56,8.73,7.21a.25.25,0,0,1-.46,0C7.55,5.56,6.37,4.5,5,4.5,2.76,4.5,1,7.36,1,11a.5.5,0,0,0,.5.5h21A.5.5,0,0,0,23,11C23,7.36,21.24,4.5,19,4.5ZM5,7c-.39,0-.79.44-1,1.12a.48.48,0,0,1-.47.33.5.5,0,0,1-.17,0A.5.5,0,0,1,3,7.79C3.42,6.67,4.16,6,5,6A.5.5,0,0,1,5,7Zm7.5-.5A.5.5,0,0,1,12,7c-.39,0-.79.44-1,1.12a.48.48,0,0,1-.47.33.5.5,0,0,1-.17,0,.5.5,0,0,1-.3-.64C10.42,6.67,11.16,6,12,6A.5.5,0,0,1,12.5,6.5ZM19,7c-.39,0-.79.44-1,1.12a.48.48,0,0,1-.47.33.5.5,0,0,1-.17,0,.5.5,0,0,1-.3-.64C17.42,6.67,18.16,6,19,6a.5.5,0,0,1,0,1Z"></path></g></svg>