<svg xmlns="http://www.w3.org/2000/svg" viewBox="0 0 24 24" height="16" width="16"><g><rect x="0.06" y="7.39" width="5.46" height="5.46" rx="0.5"></rect><rect x="3.63" y="0.66" width="5.46" height="5.46" rx="0.5"></rect><rect x="7.19" y="7.39" width="5.46" height="5.46" rx="0.5"></rect><path d="M22,16.91H11.85c-.69-1.62-3.4-2.22-5.77-2.22-2.66,0-5.75.76-5.93,2.87a5.3,5.3,0,0,0,4.06,6,7.14,7.14,0,0,0,1.86.25,5.84,5.84,0,0,0,5.37-3H22a2,2,0,0,0,0-3.95ZM6.08,16.19c2.45,0,4.43.7,4.43,1.56s-2,1.56-4.43,1.56-4.44-.7-4.44-1.56S3.63,16.19,6.08,16.19Z"></path></g></svg>