<svg xmlns="http://www.w3.org/2000/svg" viewBox="0 0 24 24" height="16" width="16"><g><path d="M3.52,11.34a.52.52,0,0,0,.48.13.5.5,0,0,0,.35-.35A19.24,19.24,0,0,1,7.79,4.29a.26.26,0,0,0,0-.29.26.26,0,0,0-.27-.11A7.56,7.56,0,0,0,2,8.39a1.66,1.66,0,0,0,.36,1.81Z"></path><path d="M21.35,14.7l-.26.27A18.26,18.26,0,0,1,14,19.3a.5.5,0,0,0-.33.36.5.5,0,0,0,.13.47l1.31,1.32a1.68,1.68,0,0,0,2.41,0A19.94,19.94,0,0,0,21.77,15a.25.25,0,0,0-.1-.3A.26.26,0,0,0,21.35,14.7Z"></path><path d="M23.33.65C22.37-.3,15-.9,10.09,4A18.32,18.32,0,0,0,5.16,15a1,1,0,0,1-.55.82l-4,2A1.18,1.18,0,0,0,0,18.84a1.16,1.16,0,0,0,.66,1.05L2.87,21a1,1,0,0,1,.49.51l.76,1.84a1.19,1.19,0,0,0,1,.7,1.16,1.16,0,0,0,1.07-.65l1.94-4A1,1,0,0,1,9,18.83a18.12,18.12,0,0,0,11-4.92C24.94,9,24.28,1.61,23.33.65ZM17.5,5.58a1.17,1.17,0,1,1,0-1.65A1.16,1.16,0,0,1,17.5,5.58Z"></path></g></svg>