<svg xmlns="http://www.w3.org/2000/svg" viewBox="0 0 24 24" height="16" width="16"><g><rect x="3.05" y="5.35" width="10.6" height="6" rx="1" transform="translate(-3.46 8.35) rotate(-45)"></rect><path d="M3.21,12.67a.49.49,0,0,0-.64-.06L.44,14.14a1.49,1.49,0,0,0,0,2.12,1.51,1.51,0,0,0,2.12,0l1.52-2.13a.51.51,0,0,0,0-.65Z"></path><path d="M12.67,3.21a.49.49,0,0,1-.06-.64L14.14.44a1.49,1.49,0,0,1,2.12,0,1.51,1.51,0,0,1,0,2.12L14.13,4.08a.51.51,0,0,1-.65,0Z"></path><path d="M23.56,6.47a1.49,1.49,0,0,1,0,2.12L20,12.13a.5.5,0,0,1-.71,0L17.9,10.72a.51.51,0,0,1,0-.71l3.54-3.54A1.51,1.51,0,0,1,23.56,6.47Z"></path><path d="M18,13.42a.74.74,0,0,0,.21-.53.76.76,0,0,0-.21-.53L17.68,12a.75.75,0,0,0-1.06,0l-.88.88a.49.49,0,0,1-.52.12,5.94,5.94,0,0,0-3.58.15,10.58,10.58,0,0,0-4.13,2.3,5,5,0,0,0,7.07,7.08,10.74,10.74,0,0,0,2.31-4.13A6.05,6.05,0,0,0,17,14.82a.48.48,0,0,1,.11-.51ZM8.92,16.88a8.71,8.71,0,0,1,3.3-1.81c.32-.09.63-.16.91-.21a.26.26,0,0,1,.27.13.26.26,0,0,1-.05.29L8.61,20a.26.26,0,0,1-.42-.1A3,3,0,0,1,8.92,16.88Zm6.05.95a8.79,8.79,0,0,1-1.8,3.29,3.08,3.08,0,0,1-3,.72.26.26,0,0,1-.17-.18.25.25,0,0,1,.07-.24l4.72-4.72a.25.25,0,0,1,.29-.05.26.26,0,0,1,.14.26A7.16,7.16,0,0,1,15,17.83Z"></path></g></svg>