<svg xmlns="http://www.w3.org/2000/svg" viewBox="0 0 24 24" height="16" width="16"><g><path d="M12,0A12,12,0,1,0,24,12,12,12,0,0,0,12,0ZM22,12A10,10,0,0,1,6.13,20.1a.53.53,0,0,1-.2-.37.51.51,0,0,1,.14-.39l1.64-1.63a1,1,0,0,0-1.42-1.42L4.66,17.93a.51.51,0,0,1-.39.14.53.53,0,0,1-.37-.2,10,10,0,0,1,14-14,.53.53,0,0,1,.2.37.51.51,0,0,1-.14.39L16.29,6.29a1,1,0,0,0,1.42,1.42l1.63-1.64a.51.51,0,0,1,.39-.14.53.53,0,0,1,.37.2A10,10,0,0,1,22,12Z"></path><path d="M18.24,18.24a.77.77,0,0,0,0-1.07l-.77-.76a.5.5,0,0,1,0-.68,3.86,3.86,0,0,0,.92-1.82,4.37,4.37,0,0,0-.55-2.83.46.46,0,0,0-.33-.23.48.48,0,0,0-.4.09,4.46,4.46,0,0,0-1.54,2.43,2.49,2.49,0,0,0,0,.46.28.28,0,0,1-.16.23.27.27,0,0,1-.27-.06l-.53-.53a.49.49,0,0,1,0-.67A4.15,4.15,0,0,0,15.43,11a4.53,4.53,0,0,0-.55-2.83.54.54,0,0,0-.34-.23.53.53,0,0,0-.4.1,4.52,4.52,0,0,0-1.54,2.43c0,.15,0,.31,0,.46a.25.25,0,0,1-.16.22.23.23,0,0,1-.26-.06l-.58-.57a.51.51,0,0,1,0-.68A4.05,4.05,0,0,0,12.45,8a4.53,4.53,0,0,0-.55-2.83.54.54,0,0,0-.34-.23.49.49,0,0,0-.4.1A4.48,4.48,0,0,0,9.62,7.46a.2.2,0,0,1-.19.18.23.23,0,0,1-.24-.13,3.41,3.41,0,0,0-.74-1.09A4.48,4.48,0,0,0,5.81,5.28a.48.48,0,0,0-.38.15.5.5,0,0,0-.15.38A4.48,4.48,0,0,0,6.42,8.45a3.59,3.59,0,0,0,1.09.74.23.23,0,0,1,.13.24.21.21,0,0,1-.18.19A4.51,4.51,0,0,0,5,11.16a.52.52,0,0,0-.09.4.54.54,0,0,0,.23.34,4.78,4.78,0,0,0,2.21.6A3.31,3.31,0,0,0,8,12.45a4,4,0,0,0,1.82-.93.52.52,0,0,1,.68,0l.57.58a.23.23,0,0,1,.06.26.24.24,0,0,1-.22.16l-.46,0A4.52,4.52,0,0,0,8,14.14a.49.49,0,0,0-.1.4.54.54,0,0,0,.23.34,4.73,4.73,0,0,0,2.21.61,3.34,3.34,0,0,0,.62-.06,4.15,4.15,0,0,0,1.83-.92.49.49,0,0,1,.67,0l.53.53a.27.27,0,0,1,.06.27.28.28,0,0,1-.23.16,2.49,2.49,0,0,0-.46,0,4.46,4.46,0,0,0-2.43,1.54.51.51,0,0,0-.09.4.46.46,0,0,0,.23.33,4.67,4.67,0,0,0,2.2.61,3.44,3.44,0,0,0,.63-.06,4,4,0,0,0,1.82-.92.5.5,0,0,1,.68,0l.76.77a.79.79,0,0,0,1.07,0Z"></path></g></svg>