<svg xmlns="http://www.w3.org/2000/svg" viewBox="0 0 24 24" height="16" width="16"><path d="M12,1.16A10.84,10.84,0,1,0,22.84,12,10.84,10.84,0,0,0,12,1.16ZM9.14,13.69c0,1.65-1.2,2.67-3.12,2.67A2.7,2.7,0,0,1,3.3,13.69a3.06,3.06,0,0,1,.57-1.92.74.74,0,0,1,1-.11A.76.76,0,0,1,5,12.72a1.75,1.75,0,0,0-.23,1A1.2,1.2,0,0,0,6,14.86c1.07,0,1.62-.39,1.62-1.17V7.42a.75.75,0,0,1,1.5,0Zm1.17-4.61a1.92,1.92,0,0,1,1.59.82.74.74,0,0,1-.62,1.16.76.76,0,0,1-.63-.33.46.46,0,0,0-.34-.15.75.75,0,0,1,0-1.5Zm10.3,4.85a5.2,5.2,0,0,0-1.65.82,5.46,5.46,0,0,1-3.35,1.13c-1.34,0-2-.7-2.35-2.27a6,6,0,0,1-2.61,2.67.68.68,0,0,1-.34.08A.75.75,0,0,1,9.64,16a.76.76,0,0,1,.34-1c1.91-.95,3-3.45,3-7a.75.75,0,0,1,1.5,0c0,6.47.59,6.47,1.17,6.47a4,4,0,0,0,2.52-.88c.26-.17.54-.36.86-.53l-.3-.31c-.44-.47-.59-.63-1.15-.63s-.78.55-.78.55a.75.75,0,0,1-1.34-.67,2.48,2.48,0,0,1,2.12-1.38,2.73,2.73,0,0,1,2.25,1.11,5.63,5.63,0,0,0,1.06.94.75.75,0,0,1-.24,1.35Z"></path></svg>