<svg xmlns="http://www.w3.org/2000/svg" viewBox="0 0 24 24" height="16" width="16"><path d="M19.63,12l2.8-4.75a1,1,0,0,0,0-1,1,1,0,0,0-.86-.51H16L12.86.48a1,1,0,0,0-1.72,0L8.05,5.72H2.43a1,1,0,0,0-.86.51,1,1,0,0,0,0,1L4.37,12l-2.8,4.76a1,1,0,0,0,.86,1.5H8.05l3.09,5.25a1,1,0,0,0,1.72,0L16,18.24h5.62a1,1,0,0,0,.86-1.5Zm.19-4.26L18.47,10,17.12,7.72ZM17.31,12,14.8,16.24H9.2L6.69,12,9.2,7.72h5.6ZM12,3l1.63,2.76H10.37ZM4.18,7.72h2.7L5.53,10Zm0,8.52L5.53,14l1.35,2.29ZM12,21l-1.63-2.77h3.26Zm5.12-4.77L18.47,14l1.35,2.29Z"></path></svg>