<svg xmlns="http://www.w3.org/2000/svg" viewBox="0 0 24 24" height="16" width="16"><g><path d="M23.17,1.37h0A2.31,2.31,0,0,0,20.12.2,2.29,2.29,0,0,0,18.9,1.48a3.07,3.07,0,0,0-.13.5.49.49,0,0,1-.29.39l-4.5,2a.46.46,0,0,1-.38,0,.48.48,0,0,1-.28-.26l-.21-.46a1,1,0,1,0-1.82.82l1.63,3.65a1,1,0,0,0,1.83-.82l-.21-.45a.49.49,0,0,1,.26-.66l4.5-2a.51.51,0,0,1,.48,0A2.3,2.3,0,0,0,22,4.42,2.32,2.32,0,0,0,23.17,1.37Z"></path><path d="M7.45,10.59a1,1,0,0,0,1.32.51h0v0l.55-.84a0,0,0,0,0,0,0,1.09,1.09,0,0,0-.08-.43L7.64,6.12a1,1,0,0,0-1.83.82Z"></path><path d="M12.57,15.21a2.29,2.29,0,0,1-4.58,0c0-1,1.52-3.42,2.08-4.27a.24.24,0,0,1,.42,0C11.05,11.79,12.57,14.18,12.57,15.21Z"></path><path d="M10.24,9.5a.27.27,0,0,0,.19.14,1,1,0,0,1,.67.42c.11.15.27.39.45.67a.23.23,0,0,0,.23.1l.13-.05a1,1,0,0,0,.51-1.32L10,4a1,1,0,0,0-1.83.82Z"></path><path d="M16.63,18.5a1,1,0,0,0-1-1h-2.9a.23.23,0,0,0-.16.06,3.26,3.26,0,0,1-4.58,0,.23.23,0,0,0-.16-.06H1.63a1,1,0,1,0,0,2,.68.68,0,0,1,.66.52,5.66,5.66,0,0,0,5.34,4h2A5.66,5.66,0,0,0,15,20a.68.68,0,0,1,.66-.52A1,1,0,0,0,16.63,18.5Z"></path></g></svg>