<svg xmlns="http://www.w3.org/2000/svg" viewBox="0 0 24 24" height="16" width="16"><path d="M10.8.22h0A1.24,1.24,0,0,0,9.34.43,1.26,1.26,0,0,0,9.1,1.9a10.21,10.21,0,0,1,0,9.2.25.25,0,0,1-.22.13.3.3,0,0,1-.22-.14,5.92,5.92,0,0,1-.56-1.56A.74.74,0,0,0,7.66,9a.72.72,0,0,0-.72.12,8.65,8.65,0,0,0-2.78,9.6,7.8,7.8,0,0,0,7.75,5.23c4.23,0,7.18-2.14,8.11-5.88C21.39,12.52,18,4.05,10.8.22ZM15.54,18.1A3.31,3.31,0,0,1,12,20.92a3.41,3.41,0,0,1-3.36-2.81.5.5,0,0,1,.61-.57,3,3,0,0,0,2.5-1.41,2.31,2.31,0,0,0,.45-2.46.5.5,0,0,1,.06-.57.48.48,0,0,1,.55-.14A4.72,4.72,0,0,1,15.54,18.1Z"></path></svg>