<svg xmlns="http://www.w3.org/2000/svg" viewBox="0 0 24 24" height="16" width="16"><g><path d="M20.5,22h-1V18.5A7.51,7.51,0,0,0,15.74,12,7.49,7.49,0,0,0,19.5,5.5V2h1a1,1,0,0,0,0-2H3.5a1,1,0,0,0,0,2h1V5.5A7.49,7.49,0,0,0,8.26,12,7.51,7.51,0,0,0,4.5,18.5V22h-1a1,1,0,0,0,0,2h17a1,1,0,0,0,0-2Zm-14-3.5A5.51,5.51,0,0,1,12.55,13a5.67,5.67,0,0,1,4.95,5.72V21.5a.5.5,0,0,1-.5.5H7a.5.5,0,0,1-.5-.5ZM7,2H17a.5.5,0,0,1,.5.5V5.26A5.65,5.65,0,0,1,12.55,11,5.5,5.5,0,0,1,6.5,5.5v-3A.5.5,0,0,1,7,2Z"></path><path d="M12,9.63a4,4,0,0,0,3.43-2.17.5.5,0,0,0,0-.5A.5.5,0,0,0,15,6.71H9A.5.5,0,0,0,8.57,7a.5.5,0,0,0,0,.5A4,4,0,0,0,12,9.63Z"></path><path d="M12.75,15.59a1,1,0,0,0-1.5,0L7.92,19.34A1,1,0,0,0,8.67,21h6.66a1,1,0,0,0,.75-1.66Z"></path></g></svg>