<svg xmlns="http://www.w3.org/2000/svg" viewBox="0 0 24 24" height="16" width="16"><g><path d="M18.62,8.25v-.5a.92.92,0,1,0-1.83,0v.5a1,1,0,0,1-.63,1l-8.1,2.66a2.74,2.74,0,0,0-1.17.79,1,1,0,0,1-.75.34H5.87a.49.49,0,0,0-.42.24.52.52,0,0,0,0,.5l5,9.35a1.6,1.6,0,0,0,2.88,0l5-9.37a.52.52,0,0,0,0-.5.5.5,0,0,0-.43-.24H12.55a.26.26,0,0,1-.25-.21.26.26,0,0,1,.17-.28l4.22-1.38A3,3,0,0,0,18.62,8.25Z"></path><path d="M7.87,10.08a1,1,0,0,1-1-1A2.36,2.36,0,0,1,8.55,6.84l5.58-1.77a.32.32,0,0,0,.24-.32V4.42a1,1,0,0,1,2,0v.33A2.35,2.35,0,0,1,14.7,7L9.12,8.76a.34.34,0,0,0-.25.32A1,1,0,0,1,7.87,10.08Z"></path><path d="M12.62,1.07A.51.51,0,0,0,13,.72a1,1,0,0,1,2,.28v.19a1.74,1.74,0,0,1-1.35,1.67L10.08,4a.3.3,0,0,0-.21.25,1,1,0,0,1-1,1,1,1,0,0,1-1-1V3.84A1.77,1.77,0,0,1,9.22,2.16Z"></path></g></svg>