<svg xmlns="http://www.w3.org/2000/svg" viewBox="0 0 24 24" height="16" width="16"><g><path d="M16.88,13.07v-2.7A2,2,0,0,0,16.3,9L13.88,6.54V5.25H10.12v1Z"></path><path d="M13.88,3.75V1.5A1.25,1.25,0,0,0,12.63.25H11.37A1.25,1.25,0,0,0,10.12,1.5V3.75Z"></path><path d="M2.42,1.62a1.27,1.27,0,0,0-.9-.37,1.23,1.23,0,0,0-.86.37,1.25,1.25,0,0,0,0,1.77L7.17,9.91a2.31,2.31,0,0,0,0,.46V21.75a2,2,0,0,0,2,2h5.76a2,2,0,0,0,2-2V19.62l3.95,3.94a1.21,1.21,0,0,0,.88.37,1.25,1.25,0,0,0,1.16-1.72,1.37,1.37,0,0,0-.27-.42Zm8.06,11.59,3.72,3.73H9.52a.46.46,0,0,1-.5-.41V13.62a.46.46,0,0,1,.5-.41Z"></path></g></svg>