<svg xmlns="http://www.w3.org/2000/svg" viewBox="0 0 24 24" height="16" width="16"><g><path d="M7.49,20.64a13.54,13.54,0,0,0-1.71-.17V18a5.11,5.11,0,0,0,1.73-.61A4.77,4.77,0,0,1,10,13.68a5,5,0,0,0,0-1.22h0l0-.19L9.38,6.68h0L8.84,1.35A1.5,1.5,0,0,0,7.35,0H2.7A1.5,1.5,0,0,0,1.21,1.35L.67,6.67h0L.52,8.16h0L.08,12.44a5,5,0,0,0,2.19,4.73,4.89,4.89,0,0,0,2,.77v2.52c-1.66.06-4.23.38-4.23,1.77C.05,23.83,3.5,24,5,24a11.82,11.82,0,0,0,3.71-.49A4.63,4.63,0,0,1,7.49,20.64ZM7.35,1.5,7.81,6H2.25L2.7,1.5Z"></path><path d="M12.23,14.6A3.26,3.26,0,0,0,9,17.85v2.5a3.25,3.25,0,0,0,6.5,0v-2.5A3.26,3.26,0,0,0,12.23,14.6ZM14,19.14l-3.45-1.72a1.75,1.75,0,0,1,3.45.43Zm-1.75,3a1.75,1.75,0,0,1-1.75-1.75V19.06l3.44,1.73A1.75,1.75,0,0,1,12.23,22.1Z"></path><path d="M22.38,16.74a.74.74,0,0,0-1,.18l-3.5,5a.74.74,0,0,0,.61,1.18.72.72,0,0,0,.61-.32l3.5-5A.74.74,0,0,0,22.38,16.74Z"></path><circle cx="22.45" cy="21.85" r="1.25"></circle><path d="M18,19.1a1.25,1.25,0,0,0,0-2.5,1.22,1.22,0,0,0-1,.54,1.18,1.18,0,0,0-.23.71,1.23,1.23,0,0,0,.28.79A1.25,1.25,0,0,0,18,19.1Z"></path></g></svg>