<svg xmlns="http://www.w3.org/2000/svg" viewBox="0 0 24 24" height="16" width="16"><g><path d="M7.16,18a4.25,4.25,0,0,1,.07-.8H2.41a.53.53,0,0,1-.58-.45v-3.2a.53.53,0,0,1,.58-.45H7.77a.53.53,0,0,1,.58.45v1.31a4.69,4.69,0,0,1,1.71-1.23v-3.3a2,2,0,0,0-.6-1.43L7,6.46V5.13H3.18V6.46L.72,8.93a2,2,0,0,0-.6,1.43V22a2,2,0,0,0,2,2H8a2.51,2.51,0,0,0,.55-.07,4.75,4.75,0,0,1-1.42-3.39Z"></path><path d="M7,1.32A1.27,1.27,0,0,0,5.74.05H4.44A1.27,1.27,0,0,0,3.18,1.32V3.63H7Z"></path><path d="M11.91,14.78A3.26,3.26,0,0,0,8.66,18v2.5a3.25,3.25,0,0,0,6.5,0V18A3.26,3.26,0,0,0,11.91,14.78Zm0,7.5a1.75,1.75,0,0,1-1.75-1.75V19.25L13.6,21A1.75,1.75,0,0,1,11.91,22.28Zm1.75-3L10.21,17.6a1.75,1.75,0,0,1,3.45.43Z"></path><path d="M22.06,16.92a.75.75,0,0,0-1,.18l-3.5,5a.76.76,0,0,0,.19,1,.75.75,0,0,0,.43.13.72.72,0,0,0,.61-.32l3.5-5A.74.74,0,0,0,22.06,16.92Z"></path><circle cx="22.13" cy="22.03" r="1.25"></circle><path d="M18.88,18a1.25,1.25,0,1,0-2.5,0,1.23,1.23,0,0,0,.28.79A1.25,1.25,0,0,0,18.88,18Z"></path></g></svg>