<svg xmlns="http://www.w3.org/2000/svg" viewBox="0 0 24 24" height="16" width="16"><g><path d="M9.54,1.5h4.65L14.65,6H9.92l6.92,6.93a3.87,3.87,0,0,0,0-.48h0l0-.34-.55-5.44h0l-.54-5.32A1.5,1.5,0,0,0,14.19,0H9.54A1.5,1.5,0,0,0,8.05,1.35L7.79,3.88,9.16,5.25Z"></path><path d="M2.42,1.52a1.27,1.27,0,0,0-.9-.37,1.23,1.23,0,0,0-.86.37,1.25,1.25,0,0,0,0,1.77L7.19,9.82l-.27,2.62a5,5,0,0,0,4.2,5.5v2.52c-1.66.06-4.23.38-4.23,1.77,0,1.6,3.45,1.77,4.93,1.77s4.93-.17,4.93-1.77c0-1.36-2.48-1.69-4.13-1.76V17.94a4.84,4.84,0,0,0,2-.74l6.26,6.26a1.25,1.25,0,0,0,.88.37,1.29,1.29,0,0,0,.89-.37,1.26,1.26,0,0,0,.27-1.35,1.37,1.37,0,0,0-.27-.42Z"></path></g></svg>