<svg xmlns="http://www.w3.org/2000/svg" viewBox="0 0 24 24" height="16" width="16"><g><path d="M4.86,10.83A6.76,6.76,0,0,1,6.81,9.35a14.88,14.88,0,0,1,1.41-.62l1.87-.8.25-.14a7.91,7.91,0,0,0,1.32-1A8.22,8.22,0,0,0,12.82,5.4c.35-.48,1.71-3,2.42-4.16C12-.78,7.09.15,3.57,3.67h0c-4,4-4.65,9.7-1.53,12.82a5.92,5.92,0,0,0,.45.41A18.52,18.52,0,0,1,3.6,12.81,8.8,8.8,0,0,1,4.86,10.83Z"></path><path d="M12.45,13.31a4.74,4.74,0,0,1,3,1c3.45-3.93,3.93-9.25,1-12.21-.16-.16-.32-.31-.49-.45a34.16,34.16,0,0,1-2.3,6.58,5.57,5.57,0,0,1-1.43,1.64L10.44,11c-.21.09-.42.18-.63.25-.69.25-1.32.44-1.87.64A8.09,8.09,0,0,0,3,17.31a7.42,7.42,0,0,0,4.66,1.1v-.35A4.75,4.75,0,0,1,12.45,13.31Z"></path><path d="M12.45,14.81A3.26,3.26,0,0,0,9.2,18.06v2.5a3.25,3.25,0,0,0,6.5,0v-2.5A3.26,3.26,0,0,0,12.45,14.81Zm-1.69,2.82a1.75,1.75,0,0,1,3.44.43v1.29Zm1.69,4.68a1.75,1.75,0,0,1-1.75-1.75V19.28L14.15,21A1.76,1.76,0,0,1,12.45,22.31Z"></path><path d="M22.6,17a.74.74,0,0,0-1,.18l-3.5,5a.75.75,0,0,0,1.23.86l3.5-5A.74.74,0,0,0,22.6,17Z"></path><circle cx="22.67" cy="22.06" r="1.25"></circle><path d="M18.17,19.31a1.25,1.25,0,0,0,0-2.5,1.22,1.22,0,0,0-1,.54,1.25,1.25,0,0,0-.23.71,1.29,1.29,0,0,0,.28.79A1.25,1.25,0,0,0,18.17,19.31Z"></path></g></svg>