<svg xmlns="http://www.w3.org/2000/svg" viewBox="0 0 24 24" height="16" width="16"><g><path d="M14.89,8.74A10.46,10.46,0,0,0,16.36,7c.44-.62,2.18-3.8,3.09-5.31C16.11-.38,11.37,0,7.31,2.6l6.81,6.81C14.38,9.2,14.64,9,14.89,8.74Z"></path><path d="M16.52,11.81l4.62,4.62c3-4.69,3.05-10.29-.25-13.59-.2-.2-.41-.38-.62-.56a42.38,42.38,0,0,1-2.93,8.38A6,6,0,0,1,16.52,11.81Z"></path><path d="M2.64,1A1.27,1.27,0,0,0,1.78.66,1.28,1.28,0,0,0,.87,1a1.25,1.25,0,0,0,0,1.77L3.75,5.68c-4.32,5-4.89,11.71-1.14,15.45a5.57,5.57,0,0,0,.57.52,23.19,23.19,0,0,1,1.44-5.2,10.24,10.24,0,0,1,1.6-2.53A8.87,8.87,0,0,1,8.7,12c.33-.16.65-.31,1-.44l2.83,2.83c-.86.32-1.66.55-2.35.81a10.31,10.31,0,0,0-6.25,6.94C7.76,24.71,13.6,23.85,18.06,20l3.66,3.67a1.28,1.28,0,0,0,.89.36,1.24,1.24,0,0,0,.88-.36,1.26,1.26,0,0,0,.25-1.41,1.23,1.23,0,0,0-.25-.36Z"></path></g></svg>