<svg xmlns="http://www.w3.org/2000/svg" viewBox="0 0 24 24" height="16" width="16"><g><path d="M7.66,16.8a.9.9,0,0,0,.9.9h5.73L7.7,11.11C7.64,11.22,7.66,10.56,7.66,16.8Z"></path><path d="M20.49,20.33a11.91,11.91,0,1,0-.16.16A.81.81,0,0,0,20.49,20.33ZM21.9,12a9.84,9.84,0,0,1-2.23,6.26l-3.92-3.93V12.25l2.32-2.33a.74.74,0,0,0,0-1.06.75.75,0,0,0-1.06,0l-1.67,1.67L14,8.26v-2h.67a.75.75,0,0,0,0-1.5H8.67a.75.75,0,0,0,0,1.5h.54V7.8L5.74,4.33A9.91,9.91,0,0,1,21.9,12ZM2.1,12A9.83,9.83,0,0,1,4.33,5.74L18.26,19.67A9.91,9.91,0,0,1,2.1,12Z"></path></g></svg>