<svg xmlns="http://www.w3.org/2000/svg" viewBox="0 0 24 24" height="16" width="16"><g><path d="M8,19.75a1.37,1.37,0,0,0,1.1.57h6.17a1.37,1.37,0,0,0,1.37-1.38V17.21l-.52-.51H11Z"></path><path d="M12,15.7h4.1l.49-.49V12.69a.31.31,0,0,0-.1-.24L16.1,12h-.41Z"></path><path d="M20.38,3.45s0,0,0,0l-.06-.05A12,12,0,0,0,3.13,20a.89.89,0,0,0,.23.37.93.93,0,0,0,.34.23A12,12,0,0,0,20.38,3.45ZM12,2a10,10,0,0,1,6.18,2.15L15.32,7a2.73,2.73,0,0,0-1.45-.42h0V4.2a.69.69,0,0,0-.68-.68H11.13a.69.69,0,0,0-.69.68V6.6h0A2.74,2.74,0,0,0,7.7,9.34v1a.37.37,0,0,0,.1.24l.44.44h3.08l-1,1H8.21l-.41.42a.35.35,0,0,0-.1.24v2L4.17,18.18A10,10,0,0,1,12,2Zm0,20a10,10,0,0,1-6.44-2.36l.55-.56L18.74,6.44l.88-.88A10,10,0,0,1,12,22Z"></path></g></svg>