<svg xmlns="http://www.w3.org/2000/svg" viewBox="0 0 24 24" height="16" width="16"><g><path d="M1.37,7.47a.5.5,0,0,0-.5.5v4.46a.5.5,0,0,0,.5.5H5.83a.5.5,0,0,0,.5-.5V8.55L5.25,7.47Z"></path><path d="M8,12.43a.5.5,0,0,0,.5.5h2.21L8,10.22Z"></path><path d="M13.92,14.46a.85.85,0,0,0,.41.21h.12A.75.75,0,0,0,15,13.4l-1.54-1.53V8a.5.5,0,0,0-.5-.5H9.06L7.79,6.21h1.6a.5.5,0,0,0,.5-.5V1.25a.5.5,0,0,0-.5-.5H4.93a.5.5,0,0,0-.5.5v1.6L2,.4A.77.77,0,0,0,.92.4.78.78,0,0,0,.71,1a.81.81,0,0,0,.21.45Z"></path><path d="M21.94,17.08H11.83c-.69-1.62-3.4-2.22-5.77-2.22-2.66,0-5.74.75-5.93,2.86a5.31,5.31,0,0,0,4.06,6A7.13,7.13,0,0,0,6.05,24a5.83,5.83,0,0,0,5.37-3H21.94a2,2,0,0,0,0-4ZM6.06,16.36c2.45,0,4.43.7,4.43,1.56s-2,1.56-4.43,1.56-4.44-.7-4.44-1.56S3.61,16.36,6.06,16.36Z"></path></g></svg>