<svg xmlns="http://www.w3.org/2000/svg" viewBox="0 0 24 24" height="16" width="16"><g><rect x="-0.03" y="7.72" width="5.46" height="5.46" rx="0.5"></rect><path d="M4,6.46H7.86a4,4,0,0,1-.05-.7V3.26A4.65,4.65,0,0,1,8.38,1H4a.51.51,0,0,0-.5.5V6A.5.5,0,0,0,4,6.46Z"></path><path d="M8.23,7.72H7.6a.5.5,0,0,0-.5.5v4.46a.5.5,0,0,0,.5.5h4.46a.5.5,0,0,0,.5-.5V10.51h0A4.76,4.76,0,0,1,8.23,7.72Z"></path><path d="M12.56,0A3.25,3.25,0,0,0,9.31,3.26v2.5a3.25,3.25,0,0,0,6.5,0V3.26A3.26,3.26,0,0,0,12.56,0ZM10.81,4.48,14.25,6.2a1.75,1.75,0,0,1-3.44-.44Zm1.75-3a1.76,1.76,0,0,1,1.75,1.75V4.55L10.86,2.83A1.76,1.76,0,0,1,12.56,1.51Z"></path><path d="M18.35,8.38a.75.75,0,0,0,.43.13.74.74,0,0,0,.61-.32l3.5-5a.74.74,0,0,0-.18-1,.75.75,0,0,0-1.05.18l-3.5,5A.76.76,0,0,0,18.35,8.38Z"></path><circle cx="22.78" cy="7.26" r="1.25"></circle><path d="M17.31,4.05A1.26,1.26,0,1,0,17,3.26,1.23,1.23,0,0,0,17.31,4.05Z"></path><path d="M21.92,17.07H11.8c-.69-1.63-3.4-2.23-5.77-2.23-2.66,0-5.75.76-5.93,2.88a5.31,5.31,0,0,0,4.06,6A7.21,7.21,0,0,0,6,24a5.85,5.85,0,0,0,5.37-3H21.92a2,2,0,0,0,0-3.94ZM6,16.34c2.45,0,4.44.7,4.44,1.57s-2,1.56-4.44,1.56-4.43-.7-4.43-1.56S3.58,16.34,6,16.34Z"></path></g></svg>