<svg xmlns="http://www.w3.org/2000/svg" viewBox="0 0 24 24" height="16" width="16"><g><path d="M7.78,20.88V18.19a4.74,4.74,0,0,1,8.91-2.08,2.73,2.73,0,0,1,.81-.38v-3.2A.51.51,0,0,1,18,12h.69A2.29,2.29,0,0,1,21,14.32a2.35,2.35,0,0,1-1,1.94,3.15,3.15,0,0,1,.36.37l0,0a2.27,2.27,0,0,1,2.87-.72,5.08,5.08,0,0,0,.23-1.52,5,5,0,0,0-5-5h-.15a3.09,3.09,0,0,0,2.54-2.78,4.36,4.36,0,0,0-.17-1.38,4.23,4.23,0,0,0-3.15-3,4.36,4.36,0,0,0-2.63.22,4.92,4.92,0,0,0-8.51.37A4,4,0,0,0,3,2.26,4.33,4.33,0,0,0,.1,5.38a4.3,4.3,0,0,0,3.05,5.11,4.2,4.2,0,0,0,.67,1.67v9.38a1.83,1.83,0,0,0,1.8,1.84H8.49A4.76,4.76,0,0,1,7.78,20.88ZM1.57,5.71a2.76,2.76,0,0,1,1.85-2,2.65,2.65,0,0,1,.74-.11,2.88,2.88,0,0,1,1.94.83l.11.1a.74.74,0,0,0,.71.18.76.76,0,0,0,.53-.53,3.43,3.43,0,0,1,6.46-.46.75.75,0,0,0,.48.42A.72.72,0,0,0,15,4a2.84,2.84,0,0,1,2.2-.4,2.78,2.78,0,0,1,2,2,3.08,3.08,0,0,1,.11.9,1.59,1.59,0,0,1-1.56,1.4H12.53a2.63,2.63,0,0,0-2.6,2.4,1.72,1.72,0,0,1-.22.75,2.77,2.77,0,0,1-1.9,1.46A2.75,2.75,0,0,1,4.59,9.85a.75.75,0,0,0-.65-.73A2.86,2.86,0,0,1,2,8,2.79,2.79,0,0,1,1.57,5.71ZM3.84,9.87Z"></path><path d="M15.78,20.88v-2.5a3.25,3.25,0,0,0-6.5,0v2.5a3.25,3.25,0,0,0,6.5,0Zm-5,0V19.59l3.44,1.72a1.75,1.75,0,0,1-3.44-.43Zm3.5-2.5v1.28l-3.45-1.72a1.75,1.75,0,0,1,3.45.44Z"></path><path d="M22.86,18.31a.75.75,0,0,0-.18-1,.74.74,0,0,0-1,.19l-3.5,5a.74.74,0,0,0,.18,1,.76.76,0,0,0,.43.14.72.72,0,0,0,.61-.32Z"></path><path d="M22.75,21.13a1.25,1.25,0,1,0,1,2l0,0a1.28,1.28,0,0,0,.21-.7A1.25,1.25,0,0,0,22.75,21.13Z"></path><path d="M18.25,17.13a1.25,1.25,0,1,0,1,2l0,0a1.28,1.28,0,0,0,.21-.7A1.25,1.25,0,0,0,18.25,17.13Z"></path></g></svg>