<svg xmlns="http://www.w3.org/2000/svg" viewBox="0 0 24 24" height="16" width="16"><g><path d="M8.22,3.54A3.59,3.59,0,0,1,14.58,4a.77.77,0,0,0,.48.42.75.75,0,0,0,.62-.1,2.94,2.94,0,0,1,4.45,1.62,2.87,2.87,0,0,1,.11,1A1.65,1.65,0,0,1,18.6,8.37c-1.53,0-3.39,0-5.12,0h-.43l5.27,5.26v-.45a.5.5,0,0,1,.5-.5h.78A2.3,2.3,0,0,1,21.89,15v.22a2.29,2.29,0,0,1-.54,1.47l1.49,1.5A4.66,4.66,0,0,0,24,15.08a4.71,4.71,0,0,0-4.7-4.71H18v-.5h.57A3.17,3.17,0,0,0,21.74,7a4.59,4.59,0,0,0-.16-1.42,4.42,4.42,0,0,0-3.26-3.1,4.49,4.49,0,0,0-2.74.24,5.09,5.09,0,0,0-8.44-.23Z"></path><path d="M2.79.82A1.29,1.29,0,0,0,2.24.5,1.27,1.27,0,0,0,1,.82,1.25,1.25,0,0,0,1,2.59l.73.73A4.49,4.49,0,0,0,.23,5.76,4.41,4.41,0,0,0,.92,9.3,4.47,4.47,0,0,0,3.4,11a4.31,4.31,0,0,0,1.19,2.34v9.17a1.36,1.36,0,0,0,1.34,1.38H16.68A1.36,1.36,0,0,0,18,22.55V19.78h.18l3.69,3.69a1.25,1.25,0,0,0,.89.37,1.21,1.21,0,0,0,.88-.37A1.25,1.25,0,0,0,23.88,22a1.12,1.12,0,0,0-.21-.29ZM1.7,6.09a2.91,2.91,0,0,1,1.12-1.7l7.34,7.34a2.9,2.9,0,0,1-1.94,1.42,2.87,2.87,0,0,1-3.38-2.76v-.1s0,0,0-.07v-.09l0,0v0l0,0,0,0,0,0,0,0,0,0,0,0,0,0,0,0h0l0,0h0l0,0h0L4.32,9.7H4.19a3,3,0,0,1-2-1.23A2.9,2.9,0,0,1,1.7,6.09ZM9.82,19.78a.75.75,0,0,1-1.5,0V16.24a.75.75,0,1,1,1.5,0Zm4.48-3.89v3.89a.75.75,0,0,1-1.5,0V15.89a.75.75,0,0,1,.75-.75h0l.73.72Z"></path></g></svg>