<svg xmlns="http://www.w3.org/2000/svg" viewBox="0 0 24 24" height="16" width="16"><g><path d="M14.85,12.87a.26.26,0,0,0-.28.05L9.23,18.27a.48.48,0,0,0-.13.48A3,3,0,0,0,15,18V13.1A.25.25,0,0,0,14.85,12.87Z"></path><path d="M12,0A12,12,0,1,0,24,12,12,12,0,0,0,12,0ZM4.27,18.07a.51.51,0,0,1-.37-.21,10,10,0,0,1,14-14,.51.51,0,0,1,.21.37.47.47,0,0,1-.15.39l-2.8,2.81a.52.52,0,0,1-.56.1.64.64,0,0,0-.31-.07H9.75A.76.76,0,0,0,9,8.25v5.13a.47.47,0,0,1-.15.35L4.66,17.92A.47.47,0,0,1,4.27,18.07Zm8.89-8.64-2.23,2.23a.26.26,0,0,1-.28.05.25.25,0,0,1-.15-.23v-2A.5.5,0,0,1,11,9h2a.25.25,0,0,1,.23.15A.26.26,0,0,1,13.16,9.43ZM12,22a10,10,0,0,1-5.86-1.9.51.51,0,0,1-.21-.37.47.47,0,0,1,.15-.39L19.34,6.08a.47.47,0,0,1,.39-.15.51.51,0,0,1,.37.21A10,10,0,0,1,12,22Z"></path><circle cx="10.25" cy="5.75" r="0.75"></circle><circle cx="13.75" cy="4.75" r="0.75"></circle><circle cx="11.75" cy="3.75" r="0.75"></circle></g></svg>