<svg xmlns="http://www.w3.org/2000/svg" viewBox="0 0 24 24" height="16" width="16"><g><path d="M17.29,16a2.5,2.5,0,0,0-3.53,0l-.39.38a47.18,47.18,0,0,1-5.79-5.78L8,10.25A2.5,2.5,0,0,0,8,6.72L5.85,4.59a2.52,2.52,0,0,0-3.54,0L1.15,5.76a3.5,3.5,0,0,0-.44,4.4A46.71,46.71,0,0,0,13.85,23.3a3.54,3.54,0,0,0,4.4-.44l1.16-1.16a2.49,2.49,0,0,0,0-3.54Z"></path><path d="M23.43.63A.79.79,0,0,0,22.9.41a.79.79,0,0,0-.53.22L16.46,6.55,15.89,6a3.18,3.18,0,0,0-.46-3.91L13.71.35a.75.75,0,0,0-1.06,0,.74.74,0,0,0,0,1.06l1.72,1.72a1.69,1.69,0,0,1,.49,1.2,1.6,1.6,0,0,1-.09.53L12,2.07a.75.75,0,1,0-1.06,1.06l2.79,2.79A1.67,1.67,0,0,1,12,5.52L10.26,3.8A.75.75,0,0,0,9.2,4.86l1.72,1.72A3.18,3.18,0,0,0,14.83,7l.57.57-2.69,2.68a.75.75,0,0,0,0,1.06.78.78,0,0,0,1.07,0l2.68-2.68,2.69,2.69a.75.75,0,0,0,1.06-1.06L17.52,7.61l.94-1,1.2,1.19a.75.75,0,0,0,1.06,0,12.77,12.77,0,0,0,2.59-3.79C23.8,2.94,24.22,1.43,23.43.63Z"></path></g></svg>