<svg xmlns="http://www.w3.org/2000/svg" viewBox="0 0 24 24" height="16" width="16"><g><path d="M19.87,20.92a8.79,8.79,0,0,1-2.2-.63A3.37,3.37,0,0,0,16.43,20a3.55,3.55,0,0,0-1.31.36A7.8,7.8,0,0,1,12,21a7.8,7.8,0,0,1-3.12-.69A3.55,3.55,0,0,0,7.57,20a3.37,3.37,0,0,0-1.24.34,8.92,8.92,0,0,1-2.2.63.5.5,0,0,0-.38.29.47.47,0,0,0,0,.47l1,1.62a1.49,1.49,0,0,0,1.27.7H18a1.48,1.48,0,0,0,1.27-.71l1-1.61a.47.47,0,0,0,0-.47A.5.5,0,0,0,19.87,20.92Z"></path><path d="M23.45,17.9C22,13.24,17.07,10.5,12,10.5S2.05,13.24.55,17.9A1,1,0,0,0,1,19.08a4,4,0,0,0,2,.42c2.28,0,3.06-1.05,4.57-1.05S10,19.5,12,19.5s2.92-1.05,4.43-1.05S18.72,19.5,21,19.5a4,4,0,0,0,2-.42A1,1,0,0,0,23.45,17.9ZM9.62,13.42l-1,1.5a.75.75,0,0,1-.62.33.74.74,0,0,1-.42-.13.75.75,0,0,1-.2-1l1-1.5a.75.75,0,0,1,1.24.84ZM12.75,15a.75.75,0,0,1-1.5,0V13a.75.75,0,0,1,1.5,0Zm3.67.12a.74.74,0,0,1-.42.13.75.75,0,0,1-.62-.33l-1-1.5a.75.75,0,1,1,1.24-.84l1,1.5A.75.75,0,0,1,16.42,15.12Z"></path><path d="M5.36,7.39a.35.35,0,0,1-.07.4,1,1,0,0,0,0,1.42,1,1,0,0,0,1.42,0A2.37,2.37,0,0,0,6.86,6l-.22-.38a.35.35,0,0,1,.07-.4A1,1,0,0,0,5.29,3.79,2.37,2.37,0,0,0,5.14,7Z"></path><path d="M17.14,6a2.37,2.37,0,0,0,.15,3.22,1,1,0,0,0,1.42,0,1,1,0,0,0,0-1.42.35.35,0,0,1-.07-.4L18.86,7a2.37,2.37,0,0,0-.15-3.22,1,1,0,0,0-1.42,1.42.35.35,0,0,1,.07.4Z"></path><path d="M11.29,7.29a1,1,0,0,0,0,1.42,1,1,0,0,0,1.42,0c2.11-2.11.84-3.8.09-4.81s-1-1.31-.09-2.19A1,1,0,1,0,11.29.29c-2.11,2.12-.85,3.8-.09,4.81S12.18,6.41,11.29,7.29Z"></path></g></svg>