<svg xmlns="http://www.w3.org/2000/svg" viewBox="0 0 24 24" height="16" width="16"><path d="M1.70711 0.292893C1.31658 -0.0976311 0.683417 -0.0976311 0.292893 0.292893C-0.0976311 0.683417 -0.0976311 1.31658 0.292893 1.70711L6.9693 8.38351L6.51086 8.83377C6.24254 10.8916 6.80429 13.0379 8.19813 14.7297L10.7568 12.171L11.8175 13.2317L9.25878 15.7904C10.9512 17.1847 13.0983 17.7465 15.1568 17.4775L15.606 17.0203L22.2929 23.7071C22.6834 24.0976 23.3166 24.0976 23.7071 23.7071C24.0976 23.3166 24.0976 22.6834 23.7071 22.2929L17.0078 15.5935L17.0088 15.5924L16.4872 15.0708L16.4846 15.0704L13.9799 12.5657C13.9817 12.5668 13.9836 12.5679 13.9855 12.5691L13.2327 11.8164L13.2317 11.8174L12.171 10.7568L12.1721 10.7557L11.4196 10.0032C11.4207 10.005 11.4219 10.0069 11.423 10.0088L8.91824 7.50403L8.91781 7.50142L8.39735 6.98096L8.39626 6.98204L1.70711 0.292893Z"></path><path d="M15.8635 8.12496C15.1832 3.67449 18.1472 0.710455 22.5977 1.39079C23.278 5.84125 20.314 8.80529 15.8635 8.12496Z"></path><path d="M1.36693 21.2126L3.53591 19.0436C1.79745 16.6273 2.02984 13.2348 4.22311 11.0807L4.9605 10.3564C5.06975 12.302 5.79347 14.2199 7.13328 15.7946L5.5648 17.3631C5.27191 17.656 5.27191 18.1308 5.56481 18.4237C5.8577 18.7166 6.33258 18.7166 6.62547 18.4237L8.19393 16.8552C9.76893 18.1954 11.6873 18.9192 13.6333 19.0282L12.9077 19.7667C10.7551 21.9577 7.36657 22.1911 4.95089 20.4571L2.78114 22.6268C2.39062 23.0174 1.75745 23.0174 1.36693 22.6268C0.976405 22.2363 0.976405 21.6031 1.36693 21.2126Z"></path><path d="M17.1906 13.6528L14.2934 10.7557L15.7876 9.26146C15.9271 9.22865 16.0681 9.19937 16.2104 9.17399C17.8842 8.87529 19.8012 9.1063 21.2909 10.596C21.4659 10.7711 21.4672 11.0545 21.2937 11.2311L18.9274 13.6396C18.3509 13.7091 17.768 13.7135 17.1906 13.6528Z"></path><path d="M13.2327 9.69503L10.3358 6.79809C10.2753 6.22175 10.2796 5.63995 10.3486 5.06451L12.7573 2.69884C12.9339 2.52538 13.2174 2.52666 13.3924 2.70171C14.8821 4.19138 15.1132 6.1073 14.8144 7.78019C14.7892 7.92149 14.7601 8.06162 14.7275 8.20022L13.2327 9.69503Z"></path></svg>