<svg xmlns="http://www.w3.org/2000/svg" viewBox="0 0 24 24" height="16" width="16"><path fill-rule="evenodd" d="M14.2634 6.47672C13.6184 2.25723 16.4286 -0.552976 20.6481 0.0920465C21.2931 4.31154 18.4829 7.12174 14.2634 6.47672ZM7.54123 5.04202L5.44139 7.10436C5.17464 9.04656 5.69313 11.0769 6.99876 12.6808L9.58132 10.0982C8.342 8.62952 7.66246 6.85077 7.54123 5.04202ZM10.642 11.1589L8.0594 13.7415C9.66385 15.0476 11.695 15.566 13.6378 15.2987L15.7004 13.1993C13.8909 13.0784 12.1112 12.3988 10.642 11.1589ZM5.93343 13.7461L4.4717 15.2079C4.17881 15.5008 4.17881 15.9756 4.47171 16.2685C4.7646 16.5614 5.23947 16.5614 5.53237 16.2685L6.99408 14.8068C8.47962 16.0604 10.2825 16.7413 12.1127 16.851L11.461 17.5143C9.43289 19.5786 6.24744 19.81 3.96006 18.1993L1.89674 20.2626C1.50622 20.6532 0.873054 20.6532 0.482529 20.2626C0.0920051 19.8721 0.0920051 19.239 0.482529 18.8484L2.54508 16.7859C0.930207 14.4978 1.16067 11.3086 3.22717 9.27904L3.8894 8.62864C3.99924 10.4585 4.68008 12.2609 5.93343 13.7461ZM11.7073 10.0935L14.263 7.5378C14.3719 7.51328 14.4817 7.49106 14.5923 7.47132C16.1792 7.18813 17.9967 7.40714 19.4091 8.81955C19.5751 8.98553 19.5763 9.25427 19.4118 9.42172L17.2122 11.6605C15.2918 11.9049 13.2915 11.3832 11.7073 10.0935ZM13.2029 6.47659L10.6467 9.03283C9.35781 7.4495 8.83601 5.45067 9.07944 3.53127L11.3185 1.33223C11.4859 1.16778 11.7546 1.16899 11.9206 1.33495C13.3329 2.74731 13.552 4.56379 13.2688 6.14986C13.2492 6.25958 13.2272 6.36855 13.2029 6.47659ZM15 19C14.5858 19 14.25 19.3358 14.25 19.75V21.75C14.25 22.1642 14.5858 22.5 15 22.5C15.4142 22.5 15.75 22.1642 15.75 21.75V19.75C15.75 19.3358 15.4142 19 15 19ZM12.75 19.75C12.75 18.5074 13.7574 17.5 15 17.5C16.2426 17.5 17.25 18.5074 17.25 19.75V21.75C17.25 22.9926 16.2426 24 15 24C13.7574 24 12.75 22.9926 12.75 21.75V19.75ZM19.2524 18C19.9416 18.0013 20.5 18.5605 20.5 19.25C20.5 19.9404 19.9403 20.5 19.25 20.5L19.2476 20.5C18.5583 20.4987 18 19.9395 18 19.25C18 18.5596 18.5596 18 19.25 18L19.2524 18ZM22.7524 21.5C23.4417 21.5013 24 22.0605 24 22.75C24 23.4404 23.4403 24 22.75 24L22.7476 24C22.0583 23.9987 21.5 23.4395 21.5 22.75C21.5 22.0596 22.0596 21.5 22.75 21.5L22.7524 21.5ZM23.7803 18.2197C24.0732 18.5126 24.0732 18.9874 23.7803 19.2803L19.2803 23.7803C18.9874 24.0732 18.5126 24.0732 18.2197 23.7803C17.9268 23.4874 17.9268 23.0126 18.2197 22.7197L22.7197 18.2197C23.0126 17.9268 23.4874 17.9268 23.7803 18.2197Z" clip-rule="evenodd"></path></svg>