<svg xmlns="http://www.w3.org/2000/svg" viewBox="0 0 24 24" height="16" width="16"><g><path d="M22.29,13a5.74,5.74,0,0,1-6,3.45,3.76,3.76,0,0,1-1.38,2.82,3.59,3.59,0,0,0,4.6,2.41A9,9,0,0,0,22.29,13Z"></path><path d="M13.53,20a6.47,6.47,0,0,1-2,.15.49.49,0,0,0-.41.23L9.2,23.22a.51.51,0,0,0,0,.52.49.49,0,0,0,.44.26h3.81a9.17,9.17,0,0,0,3.66-.77A5.12,5.12,0,0,1,13.53,20Z"></path><path d="M21.23,10.36a9.45,9.45,0,0,0-7.4-4.48,5.76,5.76,0,0,1-.44,6.84A4,4,0,0,1,16,14.88,4.25,4.25,0,0,0,21.23,10.36Z"></path><path d="M13.25,9a4.33,4.33,0,0,0-1.37-3.14H8.54c-.19,0-.29-.48-.29-.61A.75.75,0,0,1,9,4.5h5.5a.75.75,0,0,0,0-1.5H9A2.25,2.25,0,0,0,6.75,5.25a2.49,2.49,0,0,0,.08.61H5.33A3.06,3.06,0,0,1,4.24,3.62,2.12,2.12,0,0,1,6.36,1.5H19a.76.76,0,0,0,.75-.75A.76.76,0,0,0,19,0H6.36A3.63,3.63,0,0,0,2.74,3.62a4.45,4.45,0,0,0,.64,2.24H3.25a1,1,0,0,0-.84.46,1,1,0,0,0,0,.95L3,8.61a7.13,7.13,0,0,0,6.41,4h1.86A4.23,4.23,0,0,0,13.25,9ZM8,8.5a1,1,0,1,1,1,.95A.95.95,0,0,1,8,8.5Z"></path><path d="M6.47,16.37a.49.49,0,0,0-.44,0,.52.52,0,0,0-.24.37l-.44,3.51L1.82,21.6a.49.49,0,0,0-.31.37.47.47,0,0,0,.13.45C1.71,22.49,3.26,24,6.76,24a.51.51,0,0,0,.42-.22l1.9-2.86a.47.47,0,0,0,.09-.28A4.56,4.56,0,0,0,6.47,16.37Z"></path></g></svg>