<svg xmlns="http://www.w3.org/2000/svg" viewBox="0 0 24 24" height="16" width="16"><path d="M22.52,14.5a1,1,0,0,0-1.36-.39L19.62,15a.48.48,0,0,1-.49,0l-1.88-1.08a.52.52,0,0,1-.25-.44V10.56a.52.52,0,0,1,.25-.44L19.13,9a.48.48,0,0,1,.49,0l1.54.85a.94.94,0,0,0,.48.13,1,1,0,0,0,.88-.52,1,1,0,0,0-.39-1.36L21.78,8a.26.26,0,0,1-.13-.22.27.27,0,0,1,.12-.22L22,7.37a1,1,0,0,0-1-1.74l-.26.15a.28.28,0,0,1-.25,0,.25.25,0,0,1-.12-.22v-.4a1,1,0,0,0-1-1,1,1,0,0,0-1,1l0,1.76a.53.53,0,0,1-.25.43L16.28,8.38a.53.53,0,0,1-.52,0L13.24,6.8A.52.52,0,0,1,13,6.37v-2a.5.5,0,0,1,.24-.43L14.75,3a1,1,0,0,0-1-1.71l-.34.21a.28.28,0,0,1-.25,0A.26.26,0,0,1,13,1.29V1a1,1,0,0,0-2,0v.29a.26.26,0,0,1-.13.22.28.28,0,0,1-.25,0l-.34-.21A1,1,0,1,0,9.25,3l1.51.91a.5.5,0,0,1,.24.43v2a.52.52,0,0,1-.24.43L8.24,8.37a.53.53,0,0,1-.52,0L5.87,7.31a.53.53,0,0,1-.25-.43l0-1.76a1,1,0,0,0-1-1,1,1,0,0,0-1,1v.4a.25.25,0,0,1-.12.22.28.28,0,0,1-.25,0L3,5.63A1,1,0,0,0,2,7.37l.26.14a.27.27,0,0,1,.12.22A.26.26,0,0,1,2.22,8l-.35.19A1,1,0,0,0,1.48,9.5a1,1,0,0,0,.88.52.94.94,0,0,0,.48-.13L4.38,9a.48.48,0,0,1,.49,0l1.88,1.08a.52.52,0,0,1,.25.44v2.88a.52.52,0,0,1-.25.44L4.87,15a.48.48,0,0,1-.49,0l-1.54-.85a1,1,0,0,0-1,1.75l.35.19a.26.26,0,0,1,.13.22.27.27,0,0,1-.12.22L2,16.63A1,1,0,0,0,1.61,18,1,1,0,0,0,3,18.37l.26-.15a.28.28,0,0,1,.25,0,.25.25,0,0,1,.12.22v.4a1,1,0,0,0,1,1h0a1,1,0,0,0,1-1l0-1.76a.53.53,0,0,1,.25-.43l1.85-1.07a.53.53,0,0,1,.52,0l2.52,1.57a.52.52,0,0,1,.24.43v2a.5.5,0,0,1-.24.43L9.25,21a1,1,0,1,0,1,1.71l.34-.21a.28.28,0,0,1,.25,0,.26.26,0,0,1,.13.22V23a1,1,0,0,0,2,0v-.29a.26.26,0,0,1,.13-.22.28.28,0,0,1,.25,0l.34.21a1,1,0,0,0,1.37-.34A1,1,0,0,0,14.75,21l-1.51-.91a.5.5,0,0,1-.24-.43v-2a.52.52,0,0,1,.24-.43l2.52-1.57a.53.53,0,0,1,.52,0l1.85,1.07a.53.53,0,0,1,.25.43l0,1.76a1,1,0,0,0,1,1h0a1,1,0,0,0,1-1v-.4a.25.25,0,0,1,.12-.22.28.28,0,0,1,.25,0l.26.15A1,1,0,0,0,22.39,18,1,1,0,0,0,22,16.63l-.26-.14a.27.27,0,0,1-.12-.22.26.26,0,0,1,.13-.22l.35-.19A1,1,0,0,0,22.52,14.5Zm-10.26.95a.49.49,0,0,1-.52,0L9.24,13.9A.49.49,0,0,1,9,13.48v-3a.49.49,0,0,1,.24-.42l2.5-1.55a.49.49,0,0,1,.52,0l2.5,1.55a.49.49,0,0,1,.24.42v3a.49.49,0,0,1-.24.42Z"></path></svg>