<svg xmlns="http://www.w3.org/2000/svg" viewBox="0 0 24 24" height="16" width="16"><g><path d="M15.59,8.6A3.05,3.05,0,0,1,14,6V4a.5.5,0,0,0-.5-.5h-3A.5.5,0,0,0,10,4V6A3.05,3.05,0,0,1,8.41,8.6,4,4,0,0,0,6.5,12v9.5A2.5,2.5,0,0,0,9,24h6a2.5,2.5,0,0,0,2.5-2.5V12A4,4,0,0,0,15.59,8.6Zm-7.3,6.48,3-3.27a1,1,0,0,1,1.48,0l3,3.27a1,1,0,0,1,0,1.34l-3,3.27a1,1,0,0,1-1.48,0l-3-3.27A1,1,0,0,1,8.29,15.08Z"></path><path d="M13.75,15.75A.76.76,0,0,0,13,15H11a.75.75,0,0,0,0,1.5h2A.76.76,0,0,0,13.75,15.75Z"></path><path d="M10.5,2h3a1,1,0,0,0,0-2h-3a1,1,0,0,0,0,2Z"></path></g></svg>