<svg xmlns="http://www.w3.org/2000/svg" viewBox="0 0 24 24" height="16" width="16"><path d="M22.5,0H1.5A1.5,1.5,0,0,0,0,1.5v21A1.5,1.5,0,0,0,1.5,24h21A1.5,1.5,0,0,0,24,22.5V1.5A1.5,1.5,0,0,0,22.5,0ZM11,20.5c-4.81,0-8-2.93-7.5-4s4.33,0,7-.5c2.38-.48,5-3,6.86-1.3.59-.36,1.14-.83,1.14-1.2a1,1,0,0,1,2,0c0,1.4-1.24,2.4-2.16,2.95C18.59,18.59,15.37,20.5,11,20.5ZM18.34,7C18.59,9.09,15.37,11,11,11,6.19,11,3,8.07,3.5,7s4.33,0,7-.5c2.38-.48,5-3,6.86-1.3C18,4.84,18.5,4.37,18.5,4a1,1,0,0,1,2,0C20.5,5.4,19.26,6.4,18.34,7Z"></path></svg>