<svg xmlns="http://www.w3.org/2000/svg" viewBox="0 0 24 24" height="16" width="16"><path d="M22.5,0H1.5A1.5,1.5,0,0,0,0,1.5v21A1.5,1.5,0,0,0,1.5,24h21A1.5,1.5,0,0,0,24,22.5V1.5A1.5,1.5,0,0,0,22.5,0ZM4.74,10.22a.81.81,0,0,1,.27.11c1.71-1.08,3.7,1,5.7,1.4,2.35.47,5.65-.47,6.12.47S15,15,10.71,15C7.09,15,4,13.56,3.89,12a2.67,2.67,0,0,1-1.43-1.16,2,2,0,0,1-.13-1.62,1,1,0,1,1,1.9.63C4.26,10,4.56,10.18,4.74,10.22Zm1.54,7.56c.47-1,3.76,0,6.12-.47,2-.4,4-2.49,5.69-1.4a1.11,1.11,0,0,1,.27-.12,1,1,0,0,0,.53-.3,1,1,0,0,1,.63-1.28,1,1,0,0,1,1.25.62,2,2,0,0,1-.12,1.63,2.78,2.78,0,0,1-1.44,1.16c-.1,1.51-3.2,3-6.81,3C8.16,20.6,5.8,18.72,6.28,17.78Zm14.37-13A2.73,2.73,0,0,1,19.21,6c-.1,1.52-3.2,3-6.81,3C8.16,9,5.8,7.08,6.28,6.13s3.76,0,6.12-.47c2-.4,4-2.48,5.69-1.4a1.09,1.09,0,0,1,.27-.11,1.12,1.12,0,0,0,.53-.3,1,1,0,0,1,.63-1.28,1,1,0,0,1,1.25.61A2,2,0,0,1,20.65,4.81Z"></path></svg>