<svg xmlns="http://www.w3.org/2000/svg" viewBox="0 0 24 24" height="16" width="16"><g><path d="M7.16,4.64h-7v6a1,1,0,0,0,1,1h6Z"></path><path d="M8.16,4.35v7l2.71-2.71a1,1,0,0,0,.29-.7V1.64a1.07,1.07,0,0,0,0-.25Z"></path><path d="M7.46,3.64l3-3a1.09,1.09,0,0,0-.26,0H3.87a1,1,0,0,0-.71.3L.46,3.64Z"></path><path d="M22,16.94H11.9c-.69-1.62-3.4-2.22-5.76-2.22-2.66,0-5.74.75-5.93,2.86a5.31,5.31,0,0,0,4.05,6,7.26,7.26,0,0,0,1.87.24,5.84,5.84,0,0,0,5.37-3H22a2,2,0,0,0,0-3.95ZM6.14,16.22c2.44,0,4.43.7,4.43,1.56s-2,1.56-4.43,1.56-4.44-.7-4.44-1.56S3.69,16.22,6.14,16.22Z"></path></g></svg>