<svg xmlns="http://www.w3.org/2000/svg" viewBox="0 0 24 24" height="16" width="16"><g><path d="M23,23.25H1a1,1,0,0,1,0-2H23a1,1,0,0,1,0,2Z"></path><path d="M10,7.75a1,1,0,0,1-.71-.29,2.78,2.78,0,0,1,0-3.92.76.76,0,0,0,0-1.08A1,1,0,0,1,10.71,1a2.78,2.78,0,0,1,0,3.92.76.76,0,0,0,0,1.08,1,1,0,0,1,0,1.42A1,1,0,0,1,10,7.75Z"></path><path d="M14.5,7.75a1,1,0,0,1-.71-.29,2.78,2.78,0,0,1,0-3.92.76.76,0,0,0,0-1.08A1,1,0,0,1,15.21,1a2.78,2.78,0,0,1,0,3.92.76.76,0,0,0,0,1.08,1,1,0,0,1,0,1.42A1,1,0,0,1,14.5,7.75Z"></path><path d="M23.33,6a2.23,2.23,0,0,0-.65-.45.49.49,0,0,1-.26-.25A2.13,2.13,0,0,0,22,4.62a2.33,2.33,0,0,0-3.22,0,2.23,2.23,0,0,0-.61,2,.5.5,0,0,1-.14.45l-1.79,1.8a1,1,0,0,1-.55.28,4,4,0,0,0-1.2.4c-2.78,1.45-4.33,3.92-1.91,6.33a.75.75,0,0,1,0,1.06.74.74,0,0,1-.53.22A.71.71,0,0,1,11.5,17a4.59,4.59,0,0,1-.29-6.76.24.24,0,0,0,0-.28A.27.27,0,0,0,11,9.8a9.52,9.52,0,0,0-8.5,9.45.5.5,0,0,0,.5.5H21a.5.5,0,0,0,.5-.5A9.43,9.43,0,0,0,19.1,13a.53.53,0,0,1-.12-.4,4.7,4.7,0,0,0,.05-.63.56.56,0,0,1,.15-.34l1.66-1.65a.49.49,0,0,1,.45-.14,2.26,2.26,0,0,0,2-3.82Z"></path></g></svg>