<svg xmlns="http://www.w3.org/2000/svg" viewBox="0 0 24 24" height="16" width="16"><path fill-rule="evenodd" d="M10.5302 12.8434C10.5293 12.8421 10.5283 12.8409 10.5273 12.8396C11.8463 10.2765 13.8408 7.59111 16.0416 6.12391C16.3862 5.89415 16.4793 5.42849 16.2496 5.08385C16.0198 4.7392 15.5541 4.64608 15.2095 4.87584C12.977 6.36419 11.0172 8.87625 9.62947 11.344C9.17925 10.3408 8.96253 9.24926 9.0053 8.14413C9.07447 6.35684 9.81783 4.65176 11.1012 3.33658C13.4855 0.634588 19.7033 0.104825 22.0498 0.000957347C22.5685 -0.0220052 22.9937 0.370793 22.999 0.890031C23.0177 2.73356 22.7955 6.98252 20.5915 10.0585C18.39 13.1312 15.2532 14.5606 12.3109 13.7536C11.4013 15.522 10.7652 17.5692 10.34 19.3307C10.0793 20.4105 9.90275 21.3614 9.79161 22.0411C9.7361 22.3807 9.69704 22.6516 9.67204 22.8362C9.65954 22.9284 9.65057 22.999 9.64481 23.0457L9.63856 23.0974L9.63717 23.1093L9.63691 23.1116L9.63691 23.1116L9.63689 23.1118C9.59203 23.5106 9.31315 23.8439 8.92856 23.9584C8.54389 24.073 8.128 23.9464 7.87232 23.6371L1.22916 15.5986C0.877337 15.1729 0.937242 14.5425 1.36296 14.1907C1.78868 13.8389 2.41901 13.8988 2.77083 14.3245L8.00638 20.6597C8.10942 20.124 8.23793 19.5153 8.39581 18.8614C8.83407 17.0461 9.5117 14.8251 10.5302 12.8434Z" clip-rule="evenodd"></path></svg>