<svg xmlns="http://www.w3.org/2000/svg" viewBox="0 0 24 24" height="16" width="16"><path d="M18.55,1.26A1.53,1.53,0,0,0,17.06,0H6.94A1.52,1.52,0,0,0,5.45,1.3L4.51,8.37a7.54,7.54,0,0,0,6.08,7.49.49.49,0,0,1,.41.49V21.5a.5.5,0,0,1-.5.5H9a1,1,0,0,0,0,2h6a1,1,0,0,0,0-2H13.5a.5.5,0,0,1-.5-.5V16.35a.49.49,0,0,1,.41-.49,7.49,7.49,0,0,0,6.08-7.49ZM7.13,6a.25.25,0,0,1-.19-.09.22.22,0,0,1-.06-.19l.46-3.5A.26.26,0,0,1,7.59,2h8.82a.26.26,0,0,1,.25.22l.46,3.5a.25.25,0,0,1-.06.2.27.27,0,0,1-.19.08Z"></path></svg>